<svg version="1.1"
	 xmlns="http://www.w3.org/2000/svg" xmlns:xlink="http://www.w3.org/1999/xlink" xmlns:a="http://ns.adobe.com/AdobeSVGViewerExtensions/3.0/"
	 x="0px" y="0px" width="902.4px" height="28.2px" viewBox="0 0 902.4 28.2" style="enable-background:new 0 0 902.4 28.2;"
	 xml:space="preserve">
<defs>
</defs>
<g>
	<path d="M15.7,26.4c1.1-0.1,2.2-0.3,3.1-0.8c1-0.5,1.8-1.1,2.5-1.8c0.7-0.7,1.4-1.5,1.9-2.5c0.5-0.9,0.9-1.9,1.1-2.8
		c0.1-0.4,0.3-0.7,0.6-0.7H25l0.5,0.1c0.1,0,0.1,0.1,0.2,0.1c0.1,0,0.1,0.1,0.1,0.2c0,0.1,0,0.2,0,0.4c0,0.2-0.1,0.3-0.1,0.4l-1,5.8
		c0,0.1-0.1,0.2-0.1,0.4c0,0.2-0.1,0.3-0.1,0.4c-0.1,0.1-0.2,0.2-0.2,0.2c0,0-0.1,0-0.2,0c-0.1,0-0.1,0-0.2,0c-0.1,0-0.1,0-0.2-0.1
		l-0.8-1c-0.2,0.2-0.3,0.3-0.5,0.5c-0.3,0.3-0.7,0.5-1,0.7c-1.4,0.7-2.7,1.2-3.9,1.5c-1.2,0.3-2.4,0.4-3.7,0.4
		c-2.2,0-4.1-0.3-5.8-0.9c-1.7-0.6-3.2-1.5-4.4-2.6c-1.2-1.1-2.1-2.5-2.8-4.2c-0.6-1.6-1-3.5-1-5.5c0-2,0.3-3.9,0.9-5.6
		s1.5-3.2,2.6-4.5c1.1-1.3,2.5-2.3,4.1-3C9.2,0.8,11,0.5,13,0.5c1.1,0,2.3,0.1,3.7,0.4c1.4,0.3,2.9,0.9,4.4,1.9
		c0.1,0.1,0.3,0.2,0.4,0.2c0.1,0.1,0.2,0.1,0.3,0.2C21.9,3.2,22,3.3,22,3.3c0.1,0,0.2-0.3,0.2-0.8V1.5c0-0.2,0-0.3,0.1-0.4
		c0-0.1,0.1-0.2,0.2-0.2c0.1,0,0.3,0,0.6,0c0.3,0,0.4,0,0.5,0c0.2,0,0.3,0.1,0.3,0.2c0,0.4,0.1,0.9,0.1,1.5c0,0.7,0.1,1.4,0.1,2.1
		c0,0.8,0.1,1.5,0.1,2.1c0,0.7,0.1,1.2,0.1,1.5c0,0.2,0,0.4,0.1,0.7c0,0.3,0,0.5,0,0.8c0,0.2,0,0.4,0,0.6c0,0.2-0.1,0.3-0.2,0.3
		c-0.1,0.1-0.2,0.1-0.3,0.1c-0.2,0-0.3,0-0.5,0c-0.1,0-0.2,0-0.3-0.1c-0.1-0.1-0.1-0.2-0.2-0.3c-0.1-1-0.4-2-0.9-3
		c-0.5-1-1.2-2-2.1-2.8c-0.9-0.8-1.9-1.5-3-2c-1.1-0.5-2.4-0.8-3.7-0.8c-3,0-5.3,1.1-6.9,3.4c-1.6,2.3-2.4,5.4-2.4,9.5
		c0,1.8,0.2,3.4,0.7,4.8c0.5,1.4,1.1,2.7,2,3.7c0.9,1,1.9,1.8,3.1,2.4c1.2,0.6,2.6,0.8,4,0.8L15.7,26.4z"/>
	<path d="M31.3,15.5c-0.1-0.3-0.1-0.5-0.1-0.7c0-0.2,0-0.4,0-0.7c0-2.1,0.3-4,0.9-5.8c0.6-1.7,1.5-3.2,2.7-4.4
		c1.2-1.2,2.6-2.2,4.3-2.8c1.7-0.7,3.6-1,5.8-1c2.1,0,4,0.4,5.7,1.1c1.7,0.7,3.2,1.7,4.4,3c1.2,1.3,2.1,2.7,2.8,4.5
		c0.7,1.7,1,3.6,1,5.5c0,2-0.3,3.8-1,5.5c-0.7,1.7-1.6,3.2-2.8,4.4c-1.2,1.3-2.6,2.3-4.3,3c-1.7,0.7-3.5,1.1-5.5,1.1
		c-1.9,0-3.7-0.3-5.4-1c-1.6-0.7-3.1-1.5-4.3-2.7c-1.2-1.1-2.2-2.5-3-4C31.9,18.9,31.5,17.3,31.3,15.5z M45.9,26.5
		c1.5,0,2.8-0.3,3.9-0.8s2.1-1.3,2.9-2.3c0.8-1,1.4-2.2,1.8-3.6c0.4-1.4,0.6-3,0.6-4.7c0-2.1-0.2-4-0.7-5.7c-0.5-1.7-1.1-3.1-2-4.3
		c-0.9-1.2-1.9-2.1-3.2-2.8c-1.2-0.7-2.6-1-4.1-1c-3.2,0-5.8,0.9-7.5,2.7c-1.8,1.8-2.7,4.4-2.7,7.7c0,4.8,0.9,8.4,2.8,10.9
		C39.5,25.3,42.3,26.5,45.9,26.5z"/>
	<path d="M66.7,3.2c-0.3-0.5-1-0.8-2-0.8h-0.5c-0.3,0-0.6,0-0.7-0.1c-0.2,0-0.2-0.1-0.2-0.3V1.6c0-0.2,0-0.3,0.1-0.4
		c0.1,0,0.2-0.1,0.3-0.1h1.2h2.6c0.7,0,1.5,0,2.3,0c0.8,0,1.5,0,2.2,0c1.2,0,2.3,0,3.2-0.1c0.9,0,1.7,0,2.4,0c0.7,0,1.4,0,2.1,0
		s1.4,0,2.2,0c0.2,0,0.3,0.1,0.4,0.2c0.1,0.1,0.2,0.4,0.2,0.8l0.8,4.6v0.3c0,0.2-0.1,0.3-0.2,0.5c-0.1,0.1-0.2,0.2-0.3,0.2
		c-0.1,0-0.2-0.1-0.3-0.2c-0.2-0.2-0.4-0.5-0.6-0.8c-0.2-0.3-0.3-0.6-0.5-0.9c-0.1-0.1-0.1-0.2-0.1-0.3c0-0.1-0.1-0.2-0.1-0.2
		c-0.4-0.7-0.8-1.3-1.1-1.7c-0.3-0.4-0.6-0.6-1-0.6h-7.6c-0.4,0-0.7,0.1-0.8,0.3c-0.1,0.2-0.2,0.5-0.2,0.9v6.8c0,0.2,0,0.4,0,0.5
		c0,0.2,0.1,0.2,0.1,0.2h6.8c0.3,0,0.6-0.1,0.8-0.2c0.2-0.1,0.4-0.4,0.5-0.9c0.1-0.4,0.2-0.9,0.2-1.4c0-0.3,0-0.5,0-0.6
		c0-0.1,0.1-0.2,0.1-0.3C79.2,8.1,79.3,8,79.4,8c0.1,0,0.2,0,0.3,0h0.1c0.2,0,0.4,0.1,0.4,0.2s0.1,0.3,0.1,0.6v3.9c0,0.9,0,1.6,0,2
		s0,0.9,0,1.3c0,0.1,0,0.2,0,0.4c0,0.2,0,0.4,0,0.6c0,0.4-0.1,0.6-0.4,0.6h-0.5c-0.2,0-0.3,0-0.4-0.1C79,17.3,79,17.1,79,16.8
		l-0.2-2.3c0-0.3-0.1-0.6-0.3-0.8c-0.2-0.2-0.5-0.3-0.9-0.3h-0.2c-0.1,0-0.2,0-0.4,0s-0.5,0-0.8,0c-0.3,0-0.6,0-1,0
		c-0.4,0-0.7,0-1,0c-0.7,0-1.3,0-1.9,0c-0.5,0-1.1,0-1.7,0.1c-0.1,0-0.1,0-0.2,0.1c0,0.1,0,0.3,0,0.6v6.4c0,0.8,0,1.6,0,2.2
		c0,0.6,0.1,1.2,0.2,1.7c0.1,0.4,0.2,0.7,0.4,1c0.2,0.3,0.6,0.5,1.1,0.5h2.1c0.2,0,0.4,0,0.6,0c0.2,0,0.3,0.1,0.4,0.3
		c0,0.1,0,0.3,0,0.5c0,0.2-0.1,0.3-0.2,0.3c-0.2,0.1-0.5,0.1-1,0.1c-0.3,0-0.6,0-1,0c-0.4,0-1,0-1.8,0h-4c-0.1,0-0.4,0-0.7,0
		c-0.4,0-0.7,0-1.1,0.1c-0.4,0-0.9,0-1.4,0c-0.4,0-0.6-0.2-0.6-0.6c0-0.2,0-0.3,0.1-0.4c0.1-0.1,0.2-0.2,0.4-0.2h0.4
		c0.1,0,0.3,0,0.5,0c0.2,0,0.4,0,0.7,0c0.5,0,0.9-0.1,1-0.2c0.2-0.1,0.3-0.2,0.4-0.3c0.1-0.1,0.2-0.3,0.2-0.7
		c0.1-0.4,0.1-0.9,0.1-1.4V5.1C67.2,4.4,67,3.8,66.7,3.2z"/>
	<path d="M91.9,3.2c-0.3-0.5-1-0.8-2-0.8h-0.5c-0.3,0-0.6,0-0.7-0.1c-0.2,0-0.2-0.1-0.2-0.3V1.6c0-0.2,0-0.3,0.1-0.4
		c0.1,0,0.2-0.1,0.3-0.1h1.2h2.6c0.7,0,1.5,0,2.3,0c0.8,0,1.5,0,2.2,0c1.2,0,2.3,0,3.2-0.1c0.9,0,1.7,0,2.4,0c0.7,0,1.4,0,2.1,0
		s1.4,0,2.2,0c0.2,0,0.3,0.1,0.4,0.2c0.1,0.1,0.2,0.4,0.2,0.8l0.8,4.6v0.3c0,0.2-0.1,0.3-0.2,0.5c-0.1,0.1-0.2,0.2-0.3,0.2
		c-0.1,0-0.2-0.1-0.3-0.2c-0.2-0.2-0.4-0.5-0.6-0.8c-0.2-0.3-0.3-0.6-0.5-0.9c-0.1-0.1-0.1-0.2-0.1-0.3c0-0.1-0.1-0.2-0.1-0.2
		c-0.4-0.7-0.8-1.3-1.1-1.7c-0.3-0.4-0.6-0.6-1-0.6h-7.6c-0.4,0-0.7,0.1-0.8,0.3c-0.1,0.2-0.2,0.5-0.2,0.9v6.8c0,0.2,0,0.4,0,0.5
		c0,0.2,0.1,0.2,0.1,0.2h6.8c0.3,0,0.6-0.1,0.8-0.2c0.2-0.1,0.4-0.4,0.5-0.9c0.1-0.4,0.2-0.9,0.2-1.4c0-0.3,0-0.5,0-0.6
		c0-0.1,0.1-0.2,0.1-0.3c0.1-0.1,0.2-0.2,0.4-0.2c0.1,0,0.2,0,0.3,0h0.1c0.2,0,0.4,0.1,0.4,0.2s0.1,0.3,0.1,0.6v3.9c0,0.9,0,1.6,0,2
		s0,0.9,0,1.3c0,0.1,0,0.2,0,0.4c0,0.2,0,0.4,0,0.6c0,0.4-0.1,0.6-0.4,0.6h-0.5c-0.2,0-0.3,0-0.4-0.1c-0.1-0.1-0.2-0.3-0.2-0.6
		l-0.2-2.3c0-0.3-0.1-0.6-0.3-0.8c-0.2-0.2-0.5-0.3-0.9-0.3h-0.2c-0.1,0-0.2,0-0.4,0s-0.5,0-0.8,0c-0.3,0-0.6,0-1,0
		c-0.4,0-0.7,0-1,0c-0.7,0-1.3,0-1.9,0c-0.5,0-1.1,0-1.7,0.1c-0.1,0-0.1,0-0.2,0.1c0,0.1,0,0.3,0,0.6v6.4c0,0.8,0,1.6,0,2.2
		c0,0.6,0.1,1.2,0.2,1.7c0.1,0.4,0.2,0.7,0.4,1c0.2,0.3,0.6,0.5,1.1,0.5h2.1c0.2,0,0.4,0,0.6,0c0.2,0,0.3,0.1,0.4,0.3
		c0,0.1,0,0.3,0,0.5c0,0.2-0.1,0.3-0.2,0.3c-0.2,0.1-0.5,0.1-1,0.1c-0.3,0-0.6,0-1,0c-0.4,0-1,0-1.8,0h-4c-0.1,0-0.4,0-0.7,0
		c-0.4,0-0.7,0-1.1,0.1c-0.4,0-0.9,0-1.4,0c-0.4,0-0.6-0.2-0.6-0.6c0-0.2,0-0.3,0.1-0.4c0.1-0.1,0.2-0.2,0.4-0.2h0.4
		c0.1,0,0.3,0,0.5,0c0.2,0,0.4,0,0.7,0c0.5,0,0.9-0.1,1-0.2c0.2-0.1,0.3-0.2,0.4-0.3c0.1-0.1,0.2-0.3,0.2-0.7
		c0.1-0.4,0.1-0.9,0.1-1.4V5.1C92.4,4.4,92.3,3.8,91.9,3.2z"/>
	<path d="M120.8,11.5h4.5c0.6,0,1.1,0,1.5,0c0.4,0,0.7,0,1,0c0.4,0,0.6-0.1,0.7-0.4c0.1-0.3,0.2-0.5,0.2-0.7c0-0.2,0-0.4,0-0.6
		s0-0.4,0-0.6c0-0.2,0-0.4,0-0.6c0-0.3,0.1-0.5,0.2-0.5C129,8,129.2,8,129.4,8c0.3,0,0.5,0,0.6,0.1c0.1,0.1,0.2,0.2,0.2,0.4
		c0,0.3,0,0.5,0,0.7c0,0.2,0,0.4,0,0.6c0,0.2,0,0.5,0,0.8c0,0.3,0,0.8,0,1.3v1.8c0,0.2,0,0.4,0,0.6c0,0.3,0,0.5,0.1,0.8
		c0,0.3,0,0.6,0.1,0.9c0,0.3,0,0.5,0,0.7c0,0.2-0.1,0.3-0.3,0.4c-0.2,0.1-0.4,0.1-0.6,0.1c-0.3,0-0.4-0.1-0.5-0.4
		c-0.1-0.3-0.1-0.7-0.1-1.3c0-0.4,0-0.8,0-1.1c0-0.3,0-0.6,0-0.7c0-0.3-0.1-0.5-0.3-0.5c-0.2-0.1-0.4-0.1-0.7-0.1h-6.8V23
		c0,0.5,0,0.9,0.1,1.2c0.1,0.3,0.2,0.6,0.3,0.9c0.4,0,0.8,0.1,1.3,0.1c0.4,0.1,0.8,0.1,1.3,0.1c0.5,0,1,0,1.5,0c0.4,0,0.9,0,1.4,0
		c0.5,0,1,0,1.5-0.1c0.5,0,0.9-0.1,1.3-0.1c0.4-0.1,0.6-0.1,0.8-0.2c0.4-0.1,0.7-0.4,0.9-0.7c0.3-0.4,0.5-0.8,0.8-1.3l0.2-0.3
		c0.1-0.1,0.1-0.2,0.2-0.3c0.4-0.6,0.7-1,0.9-1.3c0.2-0.3,0.4-0.4,0.6-0.4h0.2c0.3,0,0.4,0.1,0.4,0.3c0,0.1,0,0.2,0,0.2l-1.3,5.2
		c-0.1,0.3-0.2,0.5-0.3,0.7c-0.1,0.1-0.3,0.2-0.6,0.2h-17.6c-0.3,0-0.5,0-0.6,0s-0.2-0.1-0.2-0.3c0-0.3,0-0.5,0.1-0.6
		c0.1-0.1,0.2-0.2,0.4-0.2l0.5-0.1c0.3-0.1,0.7-0.1,1.1-0.2c0.4-0.1,0.7-0.1,0.8-0.2c0.4-0.1,0.6-0.5,0.8-1.1
		c0.2-0.6,0.2-1.5,0.2-2.6V4.8c0-0.2,0-0.4,0-0.7c0-0.3-0.1-0.5-0.2-0.8c-0.1-0.2-0.3-0.4-0.6-0.6c-0.3-0.2-0.6-0.3-0.9-0.3h-1.7
		c-0.4,0-0.6-0.2-0.6-0.7V1.7c0-0.2,0.1-0.3,0.2-0.4c0.1-0.1,0.2-0.1,0.3-0.1h17.1c0.3,0,0.5,0.1,0.7,0.2c0.2,0.1,0.4,0.3,0.4,0.7
		c0.1,0.4,0.1,0.9,0.2,1.4c0.1,0.5,0.1,1.1,0.2,1.6c0.1,0.5,0.1,1,0.2,1.3s0.1,0.6,0.1,0.6c0,0.4-0.1,0.6-0.4,0.6
		c-0.2,0-0.3-0.1-0.4-0.2c-0.1-0.2-0.2-0.5-0.5-0.9l-1.5-2.6c-0.2-0.3-0.4-0.5-0.7-0.6c-0.3-0.1-0.8-0.1-1.3-0.1h-6.2
		c-0.4,0-0.7,0-0.8,0.1c-0.1,0.1-0.2,0.2-0.2,0.4V11.5z"/>
	<path d="M146.1,11.5h4.5c0.6,0,1.1,0,1.5,0c0.4,0,0.7,0,1,0c0.4,0,0.6-0.1,0.7-0.4c0.1-0.3,0.2-0.5,0.2-0.7c0-0.2,0-0.4,0-0.6
		s0-0.4,0-0.6c0-0.2,0-0.4,0-0.6c0-0.3,0.1-0.5,0.2-0.5c0.1-0.1,0.3-0.1,0.5-0.1c0.3,0,0.5,0,0.6,0.1c0.1,0.1,0.2,0.2,0.2,0.4
		c0,0.3,0,0.5,0,0.7c0,0.2,0,0.4,0,0.6c0,0.2,0,0.5,0,0.8c0,0.3,0,0.8,0,1.3v1.8c0,0.2,0,0.4,0,0.6c0,0.3,0,0.5,0.1,0.8
		c0,0.3,0,0.6,0.1,0.9c0,0.3,0,0.5,0,0.7c0,0.2-0.1,0.3-0.3,0.4c-0.2,0.1-0.4,0.1-0.6,0.1c-0.3,0-0.4-0.1-0.5-0.4
		c-0.1-0.3-0.1-0.7-0.1-1.3c0-0.4,0-0.8,0-1.1c0-0.3,0-0.6,0-0.7c0-0.3-0.1-0.5-0.3-0.5c-0.2-0.1-0.4-0.1-0.7-0.1h-6.8V23
		c0,0.5,0,0.9,0.1,1.2c0.1,0.3,0.2,0.6,0.3,0.9c0.4,0,0.8,0.1,1.3,0.1c0.4,0.1,0.8,0.1,1.3,0.1c0.5,0,1,0,1.5,0c0.4,0,0.9,0,1.4,0
		c0.5,0,1,0,1.5-0.1c0.5,0,0.9-0.1,1.3-0.1c0.4-0.1,0.6-0.1,0.8-0.2c0.4-0.1,0.7-0.4,0.9-0.7c0.3-0.4,0.5-0.8,0.8-1.3l0.2-0.3
		c0.1-0.1,0.1-0.2,0.2-0.3c0.4-0.6,0.7-1,0.9-1.3c0.2-0.3,0.4-0.4,0.6-0.4h0.2c0.3,0,0.4,0.1,0.4,0.3c0,0.1,0,0.2,0,0.2l-1.3,5.2
		c-0.1,0.3-0.2,0.5-0.3,0.7c-0.1,0.1-0.3,0.2-0.6,0.2h-17.6c-0.3,0-0.5,0-0.6,0S139,27,139,26.8c0-0.3,0-0.5,0.1-0.6
		c0.1-0.1,0.2-0.2,0.4-0.2l0.5-0.1c0.3-0.1,0.7-0.1,1.1-0.2c0.4-0.1,0.7-0.1,0.8-0.2c0.4-0.1,0.6-0.5,0.8-1.1
		c0.2-0.6,0.2-1.5,0.2-2.6V4.8c0-0.2,0-0.4,0-0.7c0-0.3-0.1-0.5-0.2-0.8c-0.1-0.2-0.3-0.4-0.6-0.6c-0.3-0.2-0.6-0.3-0.9-0.3h-1.7
		c-0.4,0-0.6-0.2-0.6-0.7V1.7c0-0.2,0.1-0.3,0.2-0.4c0.1-0.1,0.2-0.1,0.3-0.1h17.1c0.3,0,0.5,0.1,0.7,0.2c0.2,0.1,0.4,0.3,0.4,0.7
		c0.1,0.4,0.1,0.9,0.2,1.4c0.1,0.5,0.1,1.1,0.2,1.6c0.1,0.5,0.1,1,0.2,1.3s0.1,0.6,0.1,0.6c0,0.4-0.1,0.6-0.4,0.6
		c-0.2,0-0.3-0.1-0.4-0.2c-0.1-0.2-0.2-0.5-0.5-0.9l-1.5-2.6c-0.2-0.3-0.4-0.5-0.7-0.6c-0.3-0.1-0.8-0.1-1.3-0.1h-6.2
		c-0.4,0-0.7,0-0.8,0.1c-0.1,0.1-0.2,0.2-0.2,0.4V11.5z"/>
	<path d="M180.6,24.7c-0.1,0.1-0.2,0.2-0.4,0.2c-0.3,0-0.4-0.2-0.4-0.5l0.9-5.5c0.1-0.4,0.1-0.7,0.2-0.9c0.1-0.3,0.2-0.4,0.4-0.4
		c0.1,0,0.2,0,0.2,0c0.2,0.1,0.3,0.1,0.3,0.3c0,0.1,0.1,0.4,0.1,0.7V19c0,0.1,0,0.3,0,0.4c0,0.1,0,0.2,0,0.3c0,0.8,0.1,1.6,0.4,2.2
		c0.3,0.6,0.6,1.2,1.1,1.8c0.2,0.2,0.4,0.5,0.8,0.8c0.3,0.3,0.7,0.6,1.1,0.8c0.4,0.2,0.9,0.4,1.3,0.6c0.5,0.2,0.9,0.2,1.3,0.2
		c0.8,0,1.5-0.1,2.2-0.4c0.7-0.3,1.3-0.7,1.8-1.2c0.5-0.5,0.9-1.1,1.2-1.9c0.3-0.7,0.4-1.5,0.4-2.4c0-1.2-0.4-2.2-1.3-3.1
		c-0.9-0.8-2-1.5-3.4-1.9l-1.8-0.6c-1.4-0.4-2.5-0.9-3.4-1.3c-0.9-0.5-1.7-1-2.2-1.5c-0.6-0.6-1-1.2-1.2-2c-0.2-0.7-0.4-1.6-0.4-2.5
		c0-0.9,0.2-1.8,0.5-2.6c0.3-0.8,0.8-1.5,1.3-2c0.6-0.6,1.3-1,2-1.4c0.8-0.3,1.7-0.5,2.6-0.5c0.9,0,1.8,0.2,2.7,0.5
		c0.9,0.3,1.7,0.7,2.4,1.1c0.2,0.1,0.2,0.1,0.3,0.1c0.2,0,0.3-0.1,0.4-0.2c0.1-0.1,0.2-0.3,0.3-0.5c0.1-0.2,0.1-0.4,0.2-0.5
		c0.1-0.1,0.1-0.2,0.2-0.2l0.2,0c0.4,0,0.5,0.2,0.5,0.5v0.1c0,0.2-0.1,0.4-0.1,0.6s-0.1,0.5-0.1,0.8c0,0.3-0.1,0.6-0.1,0.9
		c0,0.3,0,0.5,0,0.7c0,0.5,0,1.1,0.1,1.8c0,0.6,0.1,1.2,0.2,1.7v0c0,0.2-0.1,0.3-0.3,0.3c-0.2,0.1-0.3,0.1-0.5,0.1h-0.1
		c-0.1,0-0.2-0.2-0.3-0.4c-0.1-0.2-0.2-0.5-0.3-0.8c-0.2-0.6-0.5-1.3-0.9-1.9c-0.4-0.6-0.9-1.2-1.4-1.7s-1.1-0.9-1.8-1.2
		c-0.6-0.3-1.3-0.5-1.9-0.5c-1,0-1.9,0.4-2.6,1.1c-0.7,0.8-1,1.7-1,2.9c0,0.6,0.1,1.1,0.2,1.5c0.2,0.4,0.4,0.8,0.8,1.2
		c0.4,0.3,0.8,0.7,1.4,0.9c0.6,0.3,1.3,0.5,2.1,0.8c1.6,0.5,3,1,4.2,1.5c1.2,0.5,2.1,1.1,2.9,1.8c0.7,0.7,1.3,1.4,1.6,2.2
		c0.4,0.8,0.5,1.8,0.5,2.8c0,1.3-0.2,2.5-0.7,3.5c-0.4,1.1-1,2-1.8,2.7c-0.8,0.8-1.6,1.3-2.7,1.7c-1,0.4-2.1,0.6-3.3,0.6
		c-0.9,0-1.9-0.1-2.8-0.4c-0.9-0.3-1.7-0.7-2.3-1.3l-1.8-1.6L180.6,24.7z"/>
	<path d="M204.7,2.9c-0.1-0.1-0.4-0.1-0.7-0.2c-0.5-0.1-0.9-0.1-1.4-0.2c-0.3,0-0.5-0.1-0.7-0.1c-0.3-0.1-0.5-0.1-0.6-0.1
		c-0.1,0-0.2-0.1-0.2-0.3V1.3c0-0.1,0.1-0.2,0.4-0.2c0.3,0,0.5,0,0.7,0c0.2,0,0.5,0,0.8,0c0.4,0,0.7,0,1.1,0.1c0.4,0,0.8,0,1.2,0.1
		c0.4,0,0.8,0,1.1,0c0.3,0,0.6,0,1.1,0c0.5,0,0.9,0,1.4-0.1c0.4,0,0.9,0,1.2-0.1c0.4,0,0.6,0,0.7,0c0.4,0,0.7,0.1,0.8,0.2
		s0.1,0.3,0.1,0.4V2c0,0.4-0.2,0.7-0.6,0.7l-0.8,0h-0.1c-0.2,0-0.5,0-0.7,0c-0.3,0-0.5,0.1-0.7,0.1c-0.2,0-0.4,0.1-0.6,0.2
		c-0.2,0.1-0.2,0.2-0.2,0.3v7.6H222V3.6c0-0.3-0.1-0.5-0.3-0.7c-0.2-0.2-0.5-0.3-0.8-0.3c-0.3-0.1-0.6-0.1-0.9-0.1h-0.5h-0.2
		c-0.2,0-0.4,0-0.5-0.1c-0.1,0-0.2-0.1-0.2-0.3V1.4c0-0.3,0.2-0.4,0.5-0.4l0.7,0c0,0,0.1,0,0.3,0c0.3,0,0.6,0,0.9,0s0.7,0,1.1,0
		c0.4,0,0.7,0,1,0c0.3,0,0.7,0,1.1,0c0.5,0,0.9,0,1.4-0.1s0.9,0,1.2-0.1c0.4,0,0.6,0,0.7,0h0.4c0.2,0,0.4,0,0.4,0.1
		c0.1,0,0.1,0.1,0.1,0.2v0.8c0,0.2,0,0.3-0.1,0.3c-0.1,0-0.2,0.1-0.4,0.1h-1.3c-0.5,0-0.8,0.1-1.1,0.3c-0.3,0.2-0.4,0.4-0.4,0.7v21
		c0,0.5,0.1,0.8,0.4,0.9c0.3,0.1,0.7,0.2,1.3,0.4c0.5,0.1,0.9,0.2,1.2,0.2c0.3,0,0.5,0.1,0.6,0.3c0.1,0,0.1,0.1,0.1,0.2
		c0,0.1,0,0.2-0.1,0.4c-0.1,0.1-0.1,0.2-0.1,0.4s-0.1,0.2-0.2,0.2c-0.5,0-1.1-0.1-1.6-0.1c-0.5-0.1-0.9-0.1-1.4-0.1
		c-0.5,0-1,0-1.4,0c-0.6,0-1.1,0-1.7,0c-0.5,0-1.1,0-1.5,0.1s-0.9,0-1.2,0.1c-0.3,0-0.6,0-0.7,0c-0.3,0-0.4-0.1-0.5-0.2
		c-0.1-0.1-0.1-0.3-0.1-0.5v-0.2c0-0.3,0.1-0.4,0.3-0.5l1.5-0.1c0.8-0.2,1.3-0.4,1.5-0.7c0.2-0.3,0.4-0.6,0.4-1v-11h-13.8v11.5
		c0,0.4,0.1,0.6,0.4,0.7c0.3,0.1,0.6,0.2,1.1,0.2l1.6,0.1c0.3,0,0.4,0.2,0.4,0.4c0,0.2,0.1,0.5,0.1,0.7c0,0.2-0.1,0.2-0.2,0.3
		s-0.3,0.1-0.6,0.1h-0.4c-0.1,0-0.2,0-0.6,0c-0.3,0-0.7,0-1.1-0.1c-0.4,0-0.8,0-1.2-0.1c-0.4,0-0.7,0-0.9,0c-0.7,0-1.5,0-2.3,0.1
		c-0.8,0-1.6,0.1-2.3,0.1h-0.2c-0.3,0-0.5,0-0.5-0.1c-0.1-0.1-0.1-0.2-0.1-0.3v-0.2c0-0.2,0-0.3,0.1-0.5c0.1-0.1,0.2-0.2,0.5-0.3
		c0.4-0.1,0.7-0.1,1-0.1c0.3,0,0.5,0,0.8-0.1c0.3-0.1,0.5-0.2,0.7-0.4c0.2-0.2,0.3-0.4,0.3-0.7V3.5C204.9,3.2,204.9,3,204.7,2.9z"/>
	<path d="M233.6,15.5c-0.1-0.3-0.1-0.5-0.1-0.7c0-0.2,0-0.4,0-0.7c0-2.1,0.3-4,0.9-5.8c0.6-1.7,1.5-3.2,2.7-4.4
		c1.2-1.2,2.6-2.2,4.3-2.8c1.7-0.7,3.6-1,5.8-1c2.1,0,4,0.4,5.7,1.1c1.7,0.7,3.2,1.7,4.4,3c1.2,1.3,2.1,2.7,2.8,4.5
		c0.7,1.7,1,3.6,1,5.5c0,2-0.3,3.8-1,5.5c-0.7,1.7-1.6,3.2-2.8,4.4c-1.2,1.3-2.6,2.3-4.3,3c-1.7,0.7-3.5,1.1-5.5,1.1
		c-1.9,0-3.7-0.3-5.4-1c-1.6-0.7-3.1-1.5-4.3-2.7c-1.2-1.1-2.2-2.5-3-4C234.2,18.9,233.8,17.3,233.6,15.5z M248.2,26.5
		c1.5,0,2.8-0.3,3.9-0.8s2.1-1.3,2.9-2.3c0.8-1,1.4-2.2,1.8-3.6c0.4-1.4,0.6-3,0.6-4.7c0-2.1-0.2-4-0.7-5.7c-0.5-1.7-1.1-3.1-2-4.3
		c-0.9-1.2-1.9-2.1-3.2-2.8c-1.2-0.7-2.6-1-4.1-1c-3.2,0-5.8,0.9-7.5,2.7c-1.8,1.8-2.7,4.4-2.7,7.7c0,4.8,0.9,8.4,2.8,10.9
		C241.9,25.3,244.6,26.5,248.2,26.5z"/>
	<path d="M273.2,2.3c-0.6,0.1-0.9,0.2-1.1,0.4c-0.1,0.2-0.2,0.5-0.2,1V14c0,0.6,0,1,0,1.4c0,0.4,0,0.7,0,1c0,0.3,0,0.6,0,0.8
		c0,0.3,0,0.5,0.1,0.8c0.1,1.2,0.3,2.3,0.7,3.2c0.4,0.9,0.9,1.7,1.5,2.4c0.8,0.9,1.8,1.5,2.9,1.9c1.1,0.4,2.5,0.6,4.2,0.6
		c2.9,0,4.9-0.8,6.2-2.4c1.2-1.6,1.9-4,1.9-7.2v-8c0-1.2-0.1-2.4-0.2-3.4s-0.2-1.7-0.4-2.1c-0.1-0.3-0.4-0.5-0.8-0.7
		c-0.4-0.2-0.8-0.2-1.2-0.2h-0.3c-0.3,0-0.5,0-0.5-0.1c-0.1-0.1-0.1-0.2-0.1-0.5c0-0.4,0.1-0.5,0.3-0.5c0.1,0,0.3,0,0.7,0
		c0.4,0,0.8,0,1.2,0c0.5,0,1,0,1.6,0c0.4,0,0.7,0,1,0c0.3,0,0.5,0,0.6,0l2.7-0.2c0.1,0,0.2,0.1,0.3,0.2c0.1,0.1,0.1,0.3,0.1,0.4
		c0,0.3-0.1,0.5-0.3,0.5L293.4,2c-0.1,0-0.1,0-0.2,0s-0.2,0-0.3,0c-0.7,0.1-1.2,0.3-1.5,0.5c-0.3,0.2-0.4,0.6-0.4,1.1v12.2
		c0,4-0.9,7-2.6,8.9c-1.7,1.9-4.5,2.9-8.1,2.9c-1.4,0-2.7-0.1-4-0.4c-1.3-0.2-2.5-0.7-3.6-1.5c-0.8-0.5-1.5-1.1-2-1.7
		c-0.5-0.6-0.9-1.3-1.2-2c-0.3-0.7-0.5-1.5-0.6-2.4c-0.1-0.9-0.1-1.8-0.1-2.9V3.1c0-0.4-0.2-0.6-0.6-0.7c-0.4-0.1-0.9-0.2-1.4-0.2
		c-0.3,0-0.5-0.1-0.7-0.1c-0.2-0.1-0.3-0.2-0.3-0.3c0-0.2,0-0.4,0.1-0.5c0.1-0.1,0.2-0.2,0.5-0.2h0.1c0.4,0,0.7,0,1,0
		c0.3,0,0.6,0,0.8,0.1c0.3,0,0.5,0,0.7,0h2.8c0.2,0,0.4,0,0.8,0c0.3,0,0.7,0,1-0.1c0.4,0,0.8-0.1,1.3-0.1v0h0c0.2,0,0.3,0.1,0.3,0.2
		c0,0.1,0.1,0.3,0.1,0.5c0,0.2-0.1,0.3-0.2,0.4c-0.1,0.1-0.3,0.1-0.4,0.2L273.2,2.3z"/>
	<path d="M318.7,21.2c0.2-0.3,0.3-0.5,0.4-0.6c0.1-0.1,0.2-0.1,0.3-0.1c0.2,0,0.3,0,0.4,0.1s0.2,0.2,0.2,0.3V21
		c-0.1,0.2-0.1,0.5-0.2,0.9s-0.2,0.9-0.3,1.4s-0.3,1-0.4,1.5c-0.1,0.5-0.2,1-0.3,1.3c-0.1,0.4-0.2,0.6-0.5,0.7s-0.5,0.2-0.9,0.2
		h-17.1c-0.2,0-0.3-0.1-0.4-0.3c-0.1-0.2-0.1-0.4-0.1-0.5c0-0.1,0-0.2,0.1-0.4s0.2-0.2,0.3-0.2c0.8,0,1.5-0.1,2.1-0.4
		c0.6-0.3,0.9-0.6,0.9-1.1V4c0-0.3-0.1-0.5-0.4-0.7c-0.3-0.2-0.7-0.3-1.3-0.4c-0.3,0-0.5-0.1-0.9-0.1c-0.3-0.1-0.6-0.1-0.8-0.1
		c-0.2,0-0.3-0.2-0.3-0.4l0-0.4c0-0.1,0-0.2,0.1-0.3c0.1-0.1,0.2-0.1,0.3-0.1h0.4c0.4,0,1,0,1.6,0.1c0.6,0.1,1.3,0.1,2.1,0.1h0.8
		c1.4,0,2.6-0.1,3.7-0.2c1-0.1,1.6-0.2,1.8-0.2c0.3,0,0.4,0.2,0.4,0.5c0,0.2,0,0.3-0.1,0.4c-0.1,0.1-0.2,0.2-0.3,0.2
		c-0.2,0-0.5,0.1-0.8,0.2c-0.3,0.1-0.7,0.2-1,0.2c-0.3,0.1-0.7,0.2-1,0.3c-0.3,0.1-0.5,0.2-0.7,0.2c-0.2,0.1-0.3,0.2-0.4,0.4
		c0,0.2-0.1,0.4-0.1,0.8v18.9c0,0.4,0,0.8,0.1,1c0.1,0.2,0.2,0.4,0.4,0.5s0.5,0.2,0.8,0.2c0.3,0,0.8,0,1.3,0h7.6L318.7,21.2z"/>
	<path d="M325,2.7C325,2.6,325,2.5,325,2.4V2c0-0.1,0-0.2,0.1-0.4c0.1-0.1,0.4-0.2,0.8-0.2c0.7,0,1.4,0,2.1,0.1
		c0.7,0.1,1.5,0.1,2.2,0.1h0.3c0.5,0,1.1,0,1.6-0.1c0.6-0.1,1.3-0.1,2.1-0.1c1,0,1.9,0,2.7,0.1c0.8,0.1,1.5,0.1,2.1,0.2
		c0.6,0.1,1.2,0.3,1.8,0.4c0.6,0.2,1.1,0.4,1.7,0.6c2.6,1.1,4.6,2.6,6.1,4.6c1.5,2,2.2,4.2,2.2,6.7c0,1.8-0.4,3.4-1.1,5
		c-0.7,1.6-1.8,2.9-3.1,4.1c-1.3,1.2-2.8,2.1-4.6,2.8c-1.7,0.7-3.6,1-5.6,1h-3.1c-0.9,0-1.6,0-2.1-0.1c-0.5,0-0.8-0.1-1.1-0.1h-1.4
		c-0.6,0-1.1,0-1.6,0.1c-0.5,0.1-1,0.1-1.6,0.2h-0.1c-0.2,0-0.4-0.1-0.4-0.2c-0.1-0.1-0.1-0.2-0.1-0.4c0-0.1,0-0.1,0-0.2
		c0-0.1,0-0.1,0-0.2c0-0.1,0-0.2,0.1-0.2c0.1-0.1,0.2-0.1,0.4-0.2c0.5-0.1,1-0.1,1.3-0.2c0.3,0,0.6-0.1,0.8-0.2
		c0.3-0.2,0.6-0.5,0.8-1c0.2-0.5,0.3-1,0.3-1.6V4.6c0-1.1-0.5-1.7-1.6-1.8l-1.5-0.1C325.2,2.8,325.1,2.7,325,2.7z M331.9,24.3
		c0.1,0.4,0.5,0.8,1.1,1.1c0.6,0.3,1.5,0.5,2.4,0.5c1.8,0,3.4-0.3,4.9-0.8c1.4-0.5,2.7-1.3,3.7-2.2c1-1,1.8-2.2,2.3-3.6
		c0.5-1.4,0.8-3,0.8-4.8c0-1.8-0.3-3.4-0.9-4.8S344.7,7,343.6,6c-1.1-1-2.4-1.8-3.9-2.4c-1.5-0.6-3.2-0.9-5.1-0.9
		c-0.5,0-0.9,0-1.2,0.1c-0.3,0.1-0.6,0.2-0.7,0.3c-0.2,0.1-0.3,0.2-0.4,0.4c-0.1,0.2-0.2,0.5-0.2,0.9c-0.1,0.4-0.1,0.9-0.1,1.6
		c0,0.7,0,1.6,0,2.7v13c0,0.4,0,0.8,0,1.4C331.8,23.6,331.8,24,331.9,24.3z"/>
	<path d="M384.3,12.8c1.8,0.4,3.3,1.1,4.5,2.3c1.1,1.2,1.7,2.7,1.7,4.5c0,1.1-0.3,2.3-0.9,3.4c-0.6,1.1-1.5,2.1-2.6,2.8
		c-0.8,0.5-1.7,0.9-2.8,1.1c-1,0.3-2.3,0.4-3.6,0.4H379c-0.8,0-1.5-0.1-2.1-0.1s-1.1-0.1-1.4-0.1c-0.3,0-0.6,0-0.9,0
		c-0.3,0-0.5,0-0.7,0h-1c-0.4,0-0.8,0-1.2,0.1c-0.4,0-0.9,0.1-1.3,0.1c-0.1,0-0.2,0-0.3,0c-0.4,0-0.5-0.2-0.5-0.5l0-0.3v-0.1
		c0-0.2,0.1-0.3,0.3-0.3l1-0.2c0.3-0.1,0.5-0.1,0.8-0.2c0.3-0.1,0.5-0.2,0.7-0.3c0.2-0.2,0.4-0.4,0.6-0.7c0.2-0.3,0.2-0.7,0.2-1.3
		V3.8c0-0.4-0.2-0.7-0.7-0.9s-1-0.3-1.6-0.4l-0.7-0.1c-0.1,0-0.1-0.1-0.2-0.2c-0.1-0.1-0.1-0.3-0.1-0.5c0-0.2,0-0.3,0.1-0.4
		c0-0.1,0.1-0.2,0.2-0.2h0.3c0.4,0,0.9,0,1.4,0.1c0.5,0,0.9,0.1,1.3,0.1c0,0,0.1,0,0.1,0c0,0,0.1,0,0.3,0c0.2,0,0.5,0,0.8,0
		c0.4,0,0.9,0,1.5-0.1c0.2,0,0.5,0,0.8,0c0.3,0,0.7-0.1,1-0.1s0.7-0.1,1-0.1c0.3,0,0.6,0,0.9,0c2.8,0,5,0.5,6.6,1.6
		c1.6,1,2.4,2.5,2.4,4.4c0,1.4-0.3,2.5-1,3.5C386.9,11.4,385.8,12.2,384.3,12.8z M376.3,12.3h0.4c0.1,0,0.2,0,0.4,0
		c0.1,0,0.2,0,0.4,0h3.2c1.4,0,2.5-0.4,3.3-1.3c0.8-0.9,1.2-2,1.2-3.3c0-0.7-0.1-1.4-0.4-2.1c-0.3-0.6-0.7-1.2-1.2-1.7
		c-0.5-0.5-1-0.8-1.7-1.1c-0.6-0.3-1.3-0.4-2-0.5c-0.1,0-0.3,0-0.4,0c-0.2,0-0.3,0-0.5,0c-0.3,0-0.6,0-0.9,0s-0.6,0.1-0.8,0.1
		c-0.3,0.1-0.5,0.2-0.6,0.3c-0.2,0.1-0.2,0.3-0.2,0.5v0.4L376.3,12.3z M377.1,25.5c0.5,0.5,1.5,0.7,3,0.7c2.1,0,3.7-0.5,5-1.6
		c1.2-1.1,1.9-2.5,1.9-4.3c0-1-0.2-1.9-0.6-2.7c-0.4-0.8-0.9-1.5-1.6-2.1c-0.7-0.6-1.5-1-2.5-1.3c-1-0.3-2-0.5-3.2-0.5h-2.8v9.4
		C376.3,24.2,376.5,25,377.1,25.5z"/>
	<path d="M401.6,11.5h4.5c0.6,0,1.1,0,1.5,0c0.4,0,0.7,0,1,0c0.4,0,0.6-0.1,0.7-0.4c0.1-0.3,0.2-0.5,0.2-0.7c0-0.2,0-0.4,0-0.6
		s0-0.4,0-0.6c0-0.2,0-0.4,0-0.6c0-0.3,0.1-0.5,0.2-0.5C409.9,8,410,8,410.2,8c0.3,0,0.5,0,0.6,0.1c0.1,0.1,0.2,0.2,0.2,0.4
		c0,0.3,0,0.5,0,0.7c0,0.2,0,0.4,0,0.6c0,0.2,0,0.5,0,0.8c0,0.3,0,0.8,0,1.3v1.8c0,0.2,0,0.4,0,0.6c0,0.3,0,0.5,0.1,0.8
		c0,0.3,0,0.6,0.1,0.9c0,0.3,0,0.5,0,0.7c0,0.2-0.1,0.3-0.3,0.4c-0.2,0.1-0.4,0.1-0.6,0.1c-0.3,0-0.4-0.1-0.5-0.4
		c-0.1-0.3-0.1-0.7-0.1-1.3c0-0.4,0-0.8,0-1.1c0-0.3,0-0.6,0-0.7c0-0.3-0.1-0.5-0.3-0.5c-0.2-0.1-0.4-0.1-0.7-0.1h-6.8V23
		c0,0.5,0,0.9,0.1,1.2c0.1,0.3,0.2,0.6,0.3,0.9c0.4,0,0.8,0.1,1.3,0.1c0.4,0.1,0.8,0.1,1.3,0.1c0.5,0,1,0,1.5,0c0.4,0,0.9,0,1.4,0
		c0.5,0,1,0,1.5-0.1c0.5,0,0.9-0.1,1.3-0.1c0.4-0.1,0.6-0.1,0.8-0.2c0.4-0.1,0.7-0.4,0.9-0.7c0.3-0.4,0.5-0.8,0.8-1.3l0.2-0.3
		c0.1-0.1,0.1-0.2,0.2-0.3c0.4-0.6,0.7-1,0.9-1.3c0.2-0.3,0.4-0.4,0.6-0.4h0.2c0.3,0,0.4,0.1,0.4,0.3c0,0.1,0,0.2,0,0.2l-1.3,5.2
		c-0.1,0.3-0.2,0.5-0.3,0.7c-0.1,0.1-0.3,0.2-0.6,0.2h-17.6c-0.3,0-0.5,0-0.6,0s-0.2-0.1-0.2-0.3c0-0.3,0-0.5,0.1-0.6
		c0.1-0.1,0.2-0.2,0.4-0.2l0.5-0.1c0.3-0.1,0.7-0.1,1.1-0.2c0.4-0.1,0.7-0.1,0.8-0.2c0.4-0.1,0.6-0.5,0.8-1.1
		c0.2-0.6,0.2-1.5,0.2-2.6V4.8c0-0.2,0-0.4,0-0.7c0-0.3-0.1-0.5-0.2-0.8c-0.1-0.2-0.3-0.4-0.6-0.6c-0.3-0.2-0.6-0.3-0.9-0.3H395
		c-0.4,0-0.6-0.2-0.6-0.7V1.7c0-0.2,0.1-0.3,0.2-0.4c0.1-0.1,0.2-0.1,0.3-0.1H412c0.3,0,0.5,0.1,0.7,0.2c0.2,0.1,0.4,0.3,0.4,0.7
		c0.1,0.4,0.1,0.9,0.2,1.4c0.1,0.5,0.1,1.1,0.2,1.6c0.1,0.5,0.1,1,0.2,1.3s0.1,0.6,0.1,0.6c0,0.4-0.1,0.6-0.4,0.6
		c-0.2,0-0.3-0.1-0.4-0.2c-0.1-0.2-0.2-0.5-0.5-0.9l-1.5-2.6c-0.2-0.3-0.4-0.5-0.7-0.6c-0.3-0.1-0.8-0.1-1.3-0.1h-6.2
		c-0.4,0-0.7,0-0.8,0.1c-0.1,0.1-0.2,0.2-0.2,0.4V11.5z"/>
	<path d="M436.1,24.7c-0.1,0.1-0.2,0.2-0.4,0.2c-0.3,0-0.4-0.2-0.4-0.5l0.9-5.5c0.1-0.4,0.1-0.7,0.2-0.9c0.1-0.3,0.2-0.4,0.4-0.4
		c0.1,0,0.2,0,0.2,0c0.2,0.1,0.3,0.1,0.3,0.3c0,0.1,0.1,0.4,0.1,0.7V19c0,0.1,0,0.3,0,0.4c0,0.1,0,0.2,0,0.3c0,0.8,0.1,1.6,0.4,2.2
		c0.3,0.6,0.6,1.2,1.1,1.8c0.2,0.2,0.4,0.5,0.8,0.8c0.3,0.3,0.7,0.6,1.1,0.8c0.4,0.2,0.9,0.4,1.3,0.6c0.5,0.2,0.9,0.2,1.3,0.2
		c0.8,0,1.5-0.1,2.2-0.4c0.7-0.3,1.3-0.7,1.8-1.2c0.5-0.5,0.9-1.1,1.2-1.9c0.3-0.7,0.4-1.5,0.4-2.4c0-1.2-0.4-2.2-1.3-3.1
		c-0.9-0.8-2-1.5-3.4-1.9l-1.8-0.6c-1.4-0.4-2.5-0.9-3.4-1.3c-0.9-0.5-1.7-1-2.2-1.5c-0.6-0.6-1-1.2-1.2-2c-0.2-0.7-0.4-1.6-0.4-2.5
		c0-0.9,0.2-1.8,0.5-2.6c0.3-0.8,0.8-1.5,1.3-2c0.6-0.6,1.3-1,2-1.4c0.8-0.3,1.7-0.5,2.6-0.5c0.9,0,1.8,0.2,2.7,0.5
		c0.9,0.3,1.7,0.7,2.4,1.1c0.2,0.1,0.2,0.1,0.3,0.1c0.2,0,0.3-0.1,0.4-0.2c0.1-0.1,0.2-0.3,0.3-0.5c0.1-0.2,0.1-0.4,0.2-0.5
		c0.1-0.1,0.1-0.2,0.2-0.2l0.2,0c0.4,0,0.5,0.2,0.5,0.5v0.1c0,0.2-0.1,0.4-0.1,0.6s-0.1,0.5-0.1,0.8c0,0.3-0.1,0.6-0.1,0.9
		c0,0.3,0,0.5,0,0.7c0,0.5,0,1.1,0.1,1.8c0,0.6,0.1,1.2,0.2,1.7v0c0,0.2-0.1,0.3-0.3,0.3c-0.2,0.1-0.3,0.1-0.5,0.1h-0.1
		c-0.1,0-0.2-0.2-0.3-0.4c-0.1-0.2-0.2-0.5-0.3-0.8c-0.2-0.6-0.5-1.3-0.9-1.9c-0.4-0.6-0.9-1.2-1.4-1.7s-1.1-0.9-1.8-1.2
		c-0.6-0.3-1.3-0.5-1.9-0.5c-1,0-1.9,0.4-2.6,1.1c-0.7,0.8-1,1.7-1,2.9c0,0.6,0.1,1.1,0.2,1.5c0.2,0.4,0.4,0.8,0.8,1.2
		c0.4,0.3,0.8,0.7,1.4,0.9c0.6,0.3,1.3,0.5,2.1,0.8c1.6,0.5,3,1,4.2,1.5c1.2,0.5,2.1,1.1,2.9,1.8c0.7,0.7,1.3,1.4,1.6,2.2
		c0.4,0.8,0.5,1.8,0.5,2.8c0,1.3-0.2,2.5-0.7,3.5c-0.4,1.1-1,2-1.8,2.7c-0.8,0.8-1.6,1.3-2.7,1.7c-1,0.4-2.1,0.6-3.3,0.6
		c-0.9,0-1.9-0.1-2.8-0.4c-0.9-0.3-1.7-0.7-2.3-1.3l-1.8-1.6L436.1,24.7z"/>
	<path d="M457.8,15.5c-0.1-0.3-0.1-0.5-0.1-0.7c0-0.2,0-0.4,0-0.7c0-2.1,0.3-4,0.9-5.8c0.6-1.7,1.5-3.2,2.7-4.4
		c1.2-1.2,2.6-2.2,4.3-2.8c1.7-0.7,3.6-1,5.8-1c2.1,0,4,0.4,5.7,1.1c1.7,0.7,3.2,1.7,4.4,3c1.2,1.3,2.1,2.7,2.8,4.5
		c0.7,1.7,1,3.6,1,5.5c0,2-0.3,3.8-1,5.5c-0.7,1.7-1.6,3.2-2.8,4.4c-1.2,1.3-2.6,2.3-4.3,3c-1.7,0.7-3.5,1.1-5.5,1.1
		c-1.9,0-3.7-0.3-5.4-1c-1.6-0.7-3.1-1.5-4.3-2.7c-1.2-1.1-2.2-2.5-3-4C458.5,18.9,458,17.3,457.8,15.5z M472.4,26.5
		c1.5,0,2.8-0.3,3.9-0.8s2.1-1.3,2.9-2.3c0.8-1,1.4-2.2,1.8-3.6c0.4-1.4,0.6-3,0.6-4.7c0-2.1-0.2-4-0.7-5.7c-0.5-1.7-1.1-3.1-2-4.3
		C478,4,477,3.1,475.7,2.5c-1.2-0.7-2.6-1-4.1-1c-3.2,0-5.8,0.9-7.5,2.7c-1.8,1.8-2.7,4.4-2.7,7.7c0,4.8,0.9,8.4,2.8,10.9
		C466.1,25.3,468.8,26.5,472.4,26.5z"/>
	<path d="M495.9,18.4c0,1.5,0,2.9,0.1,4.2c0.1,1.2,0.3,2.1,0.6,2.5c0.3,0.4,0.7,0.6,1.2,0.7c0.5,0.1,1.1,0.2,1.7,0.2
		c0.1,0,0.2,0,0.2,0.1c0,0.1,0.1,0.3,0.1,0.6v0.1c0,0.1,0,0.2-0.1,0.3c-0.1,0.1-0.3,0.1-0.5,0.1h-0.3c-0.2,0-0.4,0-0.7,0
		c-0.3,0-0.7,0-1.1-0.1c-0.4,0-0.7,0-1,0c-0.3,0-0.5,0-0.7,0c-0.1,0-0.4,0-0.7,0c-0.4,0-0.8,0-1.4,0c-0.4,0-0.7,0-1,0
		c-0.3,0-0.5,0-0.7,0c-0.2,0-0.5,0-0.7,0c-0.2,0-0.5,0-0.7,0c-0.3,0-0.4,0-0.4-0.1c0-0.1-0.1-0.2-0.1-0.4v-0.2c0-0.1,0-0.2,0.1-0.3
		c0-0.1,0.2-0.1,0.4-0.2c0.3-0.1,0.5-0.1,0.8-0.1c0.3,0,0.6,0,0.9-0.1c0.3-0.1,0.6-0.1,0.8-0.2c0.3-0.1,0.5-0.3,0.6-0.5
		c0.2-0.3,0.3-0.8,0.5-1.5c0.1-0.8,0.2-1.6,0.3-2.5c0.1-0.9,0.2-1.8,0.2-2.6s0.1-1.3,0.1-1.6c0-1.1,0-2.2,0-3.3c0-1.1,0-2.2,0.1-3.1
		c0-1.1,0-2.1,0-3.1c0-0.2,0-0.5-0.1-0.9c-0.1-0.4-0.2-0.8-0.3-1.1c-0.1-0.4-0.3-0.8-0.4-1.1c-0.2-0.4-0.4-0.6-0.6-0.9
		c-0.2-0.2-0.6-0.4-1.3-0.6c-0.6-0.2-1.3-0.2-2.1-0.2c-0.1,0-0.2-0.1-0.2-0.4V1.9c0-0.1,0-0.2,0-0.3c0-0.1,0.1-0.2,0.2-0.2h6.6
		l11.4,21c0.2-0.3,0.4-0.7,0.6-1.2c0.3-0.5,0.5-1.1,0.8-1.7c0.3-0.6,0.6-1.3,0.9-1.9c0.3-0.7,0.6-1.3,0.9-1.9
		c0.3-0.6,0.6-1.2,0.8-1.7s0.4-0.9,0.5-1.1c0.7-1.5,1.4-2.8,1.9-4c0.6-1.2,1.1-2.2,1.5-3.1c0.4-0.9,0.8-1.7,1.2-2.4
		c0.3-0.7,0.6-1.3,0.9-1.9h6c0.1,0,0.2,0.1,0.2,0.2c0,0.1,0,0.2,0,0.4c0,0.2,0,0.3-0.1,0.5c-0.1,0.2-0.2,0.3-0.3,0.3
		c-0.3,0-0.7,0-1.1,0c-0.4,0-0.7,0.1-1.1,0.1c-0.3,0-0.5,0.2-0.7,0.5c-0.2,0.3-0.3,0.6-0.3,1.1v18.4c0,0.3,0,0.8,0.1,1.3
		c0.1,0.5,0.2,0.9,0.4,1.1c0.3,0.2,1,0.4,2.1,0.5c0.4,0.1,0.7,0.1,0.9,0.1s0.3,0.1,0.3,0.2v0.2c0,0.2,0,0.3,0,0.6
		c0,0.2-0.1,0.3-0.2,0.3c-0.8,0-1.5-0.1-2.1-0.1c-0.6-0.1-1.1-0.1-1.6-0.1c-0.5,0-0.9,0-1.1,0c-0.5,0-0.9,0-1.4,0
		c-0.5,0-0.9,0-1.4,0.1c-0.4,0-0.8,0-1.1,0.1c-0.3,0-0.5,0-0.6,0c-0.4,0-0.6-0.1-0.7-0.2s-0.1-0.2-0.1-0.4v-0.2
		c0-0.2,0.1-0.4,0.4-0.4l1.9-0.2c0.3-0.1,0.5-0.2,0.7-0.5c0.2-0.2,0.3-0.5,0.3-0.8V6.7l-9.8,20.5c-0.1,0.3-0.3,0.4-0.5,0.4
		c-0.3,0-0.5-0.1-0.7-0.4l-10.1-19V18.4z"/>
	<path d="M536.8,11.5h4.5c0.6,0,1.1,0,1.5,0c0.4,0,0.7,0,1,0c0.4,0,0.6-0.1,0.7-0.4c0.1-0.3,0.2-0.5,0.2-0.7c0-0.2,0-0.4,0-0.6
		s0-0.4,0-0.6c0-0.2,0-0.4,0-0.6c0-0.3,0.1-0.5,0.2-0.5c0.1-0.1,0.3-0.1,0.5-0.1c0.3,0,0.5,0,0.6,0.1c0.1,0.1,0.2,0.2,0.2,0.4
		c0,0.3,0,0.5,0,0.7c0,0.2,0,0.4,0,0.6c0,0.2,0,0.5,0,0.8c0,0.3,0,0.8,0,1.3v1.8c0,0.2,0,0.4,0,0.6c0,0.3,0,0.5,0.1,0.8
		c0,0.3,0,0.6,0.1,0.9c0,0.3,0,0.5,0,0.7c0,0.2-0.1,0.3-0.3,0.4c-0.2,0.1-0.4,0.1-0.6,0.1c-0.3,0-0.4-0.1-0.5-0.4
		c-0.1-0.3-0.1-0.7-0.1-1.3c0-0.4,0-0.8,0-1.1c0-0.3,0-0.6,0-0.7c0-0.3-0.1-0.5-0.3-0.5c-0.2-0.1-0.4-0.1-0.7-0.1h-6.8V23
		c0,0.5,0,0.9,0.1,1.2c0.1,0.3,0.2,0.6,0.3,0.9c0.4,0,0.8,0.1,1.3,0.1c0.4,0.1,0.8,0.1,1.3,0.1c0.5,0,1,0,1.5,0c0.4,0,0.9,0,1.4,0
		c0.5,0,1,0,1.5-0.1c0.5,0,0.9-0.1,1.3-0.1c0.4-0.1,0.6-0.1,0.8-0.2c0.4-0.1,0.7-0.4,0.9-0.7c0.3-0.4,0.5-0.8,0.8-1.3l0.2-0.3
		c0.1-0.1,0.1-0.2,0.2-0.3c0.4-0.6,0.7-1,0.9-1.3c0.2-0.3,0.4-0.4,0.6-0.4h0.2c0.3,0,0.4,0.1,0.4,0.3c0,0.1,0,0.2,0,0.2l-1.3,5.2
		c-0.1,0.3-0.2,0.5-0.3,0.7c-0.1,0.1-0.3,0.2-0.6,0.2h-17.6c-0.3,0-0.5,0-0.6,0s-0.2-0.1-0.2-0.3c0-0.3,0-0.5,0.1-0.6
		c0.1-0.1,0.2-0.2,0.4-0.2l0.5-0.1c0.3-0.1,0.7-0.1,1.1-0.2c0.4-0.1,0.7-0.1,0.8-0.2c0.4-0.1,0.6-0.5,0.8-1.1
		c0.2-0.6,0.2-1.5,0.2-2.6V4.8c0-0.2,0-0.4,0-0.7c0-0.3-0.1-0.5-0.2-0.8c-0.1-0.2-0.3-0.4-0.6-0.6c-0.3-0.2-0.6-0.3-0.9-0.3h-1.7
		c-0.4,0-0.6-0.2-0.6-0.7V1.7c0-0.2,0.1-0.3,0.2-0.4c0.1-0.1,0.2-0.1,0.3-0.1h17.1c0.3,0,0.5,0.1,0.7,0.2c0.2,0.1,0.4,0.3,0.4,0.7
		c0.1,0.4,0.1,0.9,0.2,1.4c0.1,0.5,0.1,1.1,0.2,1.6c0.1,0.5,0.1,1,0.2,1.3S549,6.9,549,7c0,0.4-0.1,0.6-0.4,0.6
		c-0.2,0-0.3-0.1-0.4-0.2c-0.1-0.2-0.2-0.5-0.5-0.9l-1.5-2.6c-0.2-0.3-0.4-0.5-0.7-0.6c-0.3-0.1-0.8-0.1-1.3-0.1h-6.2
		c-0.4,0-0.7,0-0.8,0.1c-0.1,0.1-0.2,0.2-0.2,0.4V11.5z"/>
	<path d="M559.5,3.4c-0.8,0-1.4,0.3-1.8,0.8c-0.1,0.2-0.2,0.4-0.5,0.8c-0.2,0.4-0.5,0.8-0.7,1.1c-0.2,0.4-0.4,0.7-0.6,1.1
		c-0.2,0.3-0.3,0.5-0.3,0.5c-0.1,0.2-0.2,0.2-0.3,0.2s-0.2-0.1-0.3-0.2c-0.1-0.1-0.2-0.2-0.2-0.4l0-0.2c0.1-0.2,0.2-0.7,0.4-1.4
		c0.2-0.8,0.5-2,1-3.7c0.1-0.2,0.2-0.4,0.4-0.6c0.2-0.2,0.4-0.2,0.6-0.2h21.5c0.2,0,0.4,0,0.6,0.1c0.2,0.1,0.3,0.2,0.3,0.4l1.1,5.1
		c0.1,0.2,0.1,0.3,0.1,0.4c0,0.2-0.1,0.3-0.3,0.4l-0.2,0c-0.1,0-0.2-0.1-0.4-0.2s-0.2-0.2-0.3-0.4l-1-1.8c-0.2-0.3-0.4-0.7-0.6-1.1
		c-0.2-0.4-0.5-0.7-0.7-0.8c-0.1-0.1-0.2-0.1-0.4-0.1c-0.2,0-0.4,0-0.7,0c-0.3,0-0.7,0-1.1,0h-4.4c-0.2,0-0.4,0.1-0.6,0.4
		C570.1,4,570,4.3,570,4.5v19.6c0,0.4,0.1,0.7,0.3,1.1c0.2,0.4,0.6,0.6,1.1,0.7c0.1,0,0.2,0,0.3,0c0.1,0,0.2,0,0.4,0
		c0.1,0,0.3,0,0.4,0l1.1,0c0.2,0,0.4,0,0.4,0.1c0.1,0.1,0.1,0.3,0.1,0.5c0,0.2,0,0.3-0.1,0.4c-0.1,0.1-0.2,0.2-0.4,0.2h-0.8
		c-0.6,0-1.1,0-1.5,0c-0.4,0-0.8,0-1.1-0.1c-0.4,0-0.6,0-0.7,0H568c-0.4,0-0.7,0-1,0c-0.3,0-0.5,0-0.8,0c-0.3,0-0.4,0-0.6,0
		c-0.1,0-0.2,0-0.4,0s-0.5,0-0.7,0c-0.3,0-0.6,0.1-0.9,0.1c-0.4,0-0.6-0.2-0.6-0.5c0-0.2,0-0.4,0-0.5c0-0.1,0.1-0.2,0.3-0.2l1.3-0.1
		c0.3,0,0.5-0.1,0.8-0.1c0.2,0,0.5-0.1,0.6-0.2c0.2-0.1,0.3-0.3,0.5-0.5c0.1-0.2,0.2-0.5,0.2-0.9V4.7c0-0.6-0.1-0.9-0.3-1.1
		s-0.6-0.2-1.3-0.2H559.5z"/>
	<path d="M589.7,2.9c-0.1-0.1-0.4-0.1-0.7-0.2c-0.5-0.1-0.9-0.1-1.4-0.2c-0.3,0-0.5-0.1-0.7-0.1c-0.3-0.1-0.5-0.1-0.6-0.1
		c-0.1,0-0.2-0.1-0.2-0.3V1.3c0-0.1,0.1-0.2,0.4-0.2s0.5,0,0.7,0s0.5,0,0.8,0c0.4,0,0.7,0,1.1,0.1c0.4,0,0.8,0,1.2,0.1
		c0.4,0,0.8,0,1.1,0c0.3,0,0.7,0,1.1,0c0.5,0,0.9,0,1.4-0.1c0.4,0,0.9,0,1.2-0.1c0.4,0,0.6,0,0.7,0c0.4,0,0.7,0.1,0.8,0.2
		c0.1,0.1,0.1,0.3,0.1,0.4V2c0,0.4-0.2,0.7-0.6,0.7l-0.8,0h-0.1c-0.2,0-0.5,0-0.7,0c-0.3,0-0.5,0.1-0.7,0.1c-0.2,0-0.4,0.1-0.6,0.2
		c-0.2,0.1-0.2,0.2-0.2,0.3v7.6H607V3.6c0-0.3-0.1-0.5-0.3-0.7c-0.2-0.2-0.5-0.3-0.8-0.3c-0.3-0.1-0.6-0.1-0.9-0.1h-0.5h-0.2
		c-0.2,0-0.4,0-0.5-0.1c-0.1,0-0.2-0.1-0.2-0.3V1.4c0-0.3,0.2-0.4,0.5-0.4l0.7,0c0,0,0.1,0,0.3,0c0.3,0,0.6,0,0.9,0
		c0.4,0,0.7,0,1.1,0c0.4,0,0.7,0,1,0c0.3,0,0.7,0,1.1,0c0.5,0,0.9,0,1.4-0.1s0.9,0,1.2-0.1c0.4,0,0.6,0,0.7,0h0.4
		c0.2,0,0.4,0,0.4,0.1c0.1,0,0.1,0.1,0.1,0.2v0.8c0,0.2,0,0.3-0.1,0.3c-0.1,0-0.2,0.1-0.4,0.1h-1.3c-0.5,0-0.8,0.1-1.1,0.3
		c-0.3,0.2-0.4,0.4-0.4,0.7v21c0,0.5,0.1,0.8,0.4,0.9s0.7,0.2,1.3,0.4c0.5,0.1,0.9,0.2,1.2,0.2c0.3,0,0.5,0.1,0.6,0.3
		c0.1,0,0.1,0.1,0.1,0.2c0,0.1,0,0.2-0.1,0.4c-0.1,0.1-0.1,0.2-0.1,0.4s-0.1,0.2-0.2,0.2c-0.5,0-1.1-0.1-1.6-0.1
		c-0.5-0.1-0.9-0.1-1.4-0.1c-0.5,0-1,0-1.4,0c-0.6,0-1.1,0-1.7,0c-0.5,0-1.1,0-1.5,0.1s-0.9,0-1.2,0.1c-0.3,0-0.6,0-0.7,0
		c-0.3,0-0.4-0.1-0.5-0.2c-0.1-0.1-0.1-0.3-0.1-0.5v-0.2c0-0.3,0.1-0.4,0.3-0.5l1.5-0.1c0.8-0.2,1.3-0.4,1.5-0.7
		c0.2-0.3,0.4-0.6,0.4-1v-11h-13.8v11.5c0,0.4,0.1,0.6,0.4,0.7c0.3,0.1,0.6,0.2,1.1,0.2l1.6,0.1c0.3,0,0.4,0.2,0.4,0.4
		c0,0.2,0.1,0.5,0.1,0.7c0,0.2-0.1,0.2-0.2,0.3c-0.1,0-0.3,0.1-0.6,0.1h-0.4c-0.1,0-0.2,0-0.6,0c-0.3,0-0.7,0-1.1-0.1
		c-0.4,0-0.8,0-1.2-0.1c-0.4,0-0.7,0-0.9,0c-0.7,0-1.5,0-2.3,0.1c-0.8,0-1.6,0.1-2.3,0.1h-0.2c-0.3,0-0.5,0-0.5-0.1
		c-0.1-0.1-0.1-0.2-0.1-0.3v-0.2c0-0.2,0-0.3,0.1-0.5c0.1-0.1,0.2-0.2,0.5-0.3c0.4-0.1,0.7-0.1,1-0.1c0.3,0,0.5,0,0.8-0.1
		c0.3-0.1,0.5-0.2,0.7-0.4c0.2-0.2,0.3-0.4,0.3-0.7V3.5C589.9,3.2,589.9,3,589.7,2.9z"/>
	<path d="M625.1,27c-0.4,0-1,0-1.6,0c-0.6,0-1.2,0-1.7,0.1c-0.4,0-0.6,0.1-0.8,0.1c-0.1,0-0.2,0-0.3,0h-0.1c-0.3,0-0.4-0.1-0.5-0.4
		l0-0.5c0-0.3,0.2-0.4,0.6-0.5c0.3,0,0.6,0,0.8-0.1c0.3-0.1,0.6-0.1,1.1-0.2c0.3-0.1,0.6-0.2,0.8-0.3c0.2-0.2,0.3-0.5,0.3-0.9V4.1
		c0-0.3,0-0.5-0.1-0.7c-0.1-0.2-0.2-0.4-0.3-0.5c-0.1-0.1-0.2-0.2-0.4-0.3c-0.2-0.1-0.4-0.1-0.7-0.2c-0.2-0.1-0.5-0.1-0.7-0.1
		c-0.2,0-0.4,0-0.5,0c-0.2-0.1-0.3-0.1-0.4-0.1c-0.1,0-0.1-0.1-0.1-0.3V1.3c0-0.3,0.1-0.4,0.4-0.4c0.1,0,0.2,0,0.3,0
		c0.1,0,0.2,0,0.3,0c0.2,0,0.4,0,0.7,0c0.3,0,0.7,0.1,1.1,0.1c0.4,0,0.8,0.1,1.1,0.1c0.4,0,0.7,0,0.9,0c0.5,0,1.1,0,1.7-0.1
		c0.6-0.1,1-0.1,1.3-0.1c0.2,0,0.4,0,0.7-0.1s0.6-0.1,1-0.1c0.1,0,0.2,0.1,0.2,0.2c0,0.1,0.1,0.3,0.1,0.5c0,0.2,0,0.4-0.1,0.5
		c0,0-0.1,0.1-0.2,0.1c-0.1,0-0.3,0.1-0.4,0.1c-0.2,0-0.3,0-0.5,0.1c-0.2,0-0.3,0-0.3,0c-0.2,0.1-0.4,0.1-0.8,0.2
		c-0.3,0.1-0.6,0.3-0.7,0.5c-0.1,0.1-0.1,0.3-0.1,0.4c0,0.2,0,0.4,0,0.7V25c0,0.4,0.1,0.6,0.4,0.6c0.2,0.1,0.7,0.1,1.2,0.2
		c0.2,0,0.4,0.1,0.7,0.1c0.3,0.1,0.4,0.1,0.5,0.1c0.2,0.1,0.2,0.1,0.3,0.2c0,0.1,0.1,0.2,0.1,0.4v0.2c0,0.2,0,0.3-0.1,0.4
		s-0.1,0.2-0.3,0.2h-0.2c-0.2,0-0.3-0.1-0.6-0.1c-0.2-0.1-0.5-0.1-0.7-0.1c-0.7-0.1-1.2-0.1-1.7-0.1C626.4,27,625.8,27,625.1,27z"/>
	<path d="M643.6,8c-0.1,1.2-0.2,2.4-0.3,3.5c-0.1,1-0.1,1.9-0.2,2.9c-0.1,1-0.1,1.8-0.1,2.4c0,0.5,0,0.9,0,1.4c0,0.5,0,1,0,1.4
		c0,0.4,0,0.8,0,1.2c0,0.3,0,0.6,0,0.7c0,0.9,0.1,1.7,0.3,2.4c0.2,0.6,0.5,1.1,0.8,1.5c0.2,0.2,0.5,0.3,1,0.5c0.5,0.1,1,0.3,1.6,0.4
		l0.3,0.1c0.4,0.1,0.5,0.3,0.5,0.7c0,0.1,0,0.2-0.1,0.4c-0.1,0.2-0.2,0.2-0.3,0.2c-0.4,0-0.9-0.1-1.4-0.1c-0.5-0.1-1-0.1-1.5-0.2
		c-0.5-0.1-0.9-0.1-1.3-0.1s-0.7-0.1-0.9-0.1c-0.4,0-0.9,0-1.5,0c-0.6,0-1.5,0.1-2.6,0.3l-0.2,0c-0.3,0-0.4-0.1-0.5-0.3
		c-0.1-0.2-0.1-0.4-0.1-0.6c0-0.2,0-0.3,0-0.3c0.1-0.1,0.2-0.1,0.4-0.2c0.2-0.1,0.5-0.1,0.7-0.2c0.3-0.1,0.5-0.1,0.8-0.2
		c0.3-0.1,0.5-0.1,0.6-0.2c0.3-0.1,0.5-0.3,0.7-0.6c0.2-0.3,0.3-0.8,0.5-1.4c0.1-0.7,0.3-1.5,0.3-2.6c0.1-1.1,0.2-2.5,0.2-4.1
		l0.5-11.1c-0.2-0.2-0.3-0.5-0.6-0.8c-0.2-0.3-0.5-0.6-0.8-0.9c-0.3-0.3-0.6-0.6-1-0.8c-0.4-0.2-0.7-0.4-1.1-0.5
		c-0.5-0.1-0.9-0.2-1.2-0.2c-0.3,0-0.5-0.1-0.7-0.1c-0.1-0.1-0.2-0.2-0.2-0.4c0-0.1,0-0.1,0-0.2c0,0,0-0.1,0-0.1
		c0-0.3,0.1-0.5,0.2-0.5h6.2l6.4,7.6c0.4,0.5,1,1.2,1.6,1.9c0.6,0.7,1.3,1.5,2,2.3c0.7,0.8,1.4,1.7,2.1,2.5c0.7,0.8,1.4,1.6,2.1,2.4
		c0.7,0.7,1.2,1.4,1.8,1.9c0.5,0.6,0.9,1,1.2,1.2c0.1,0.1,0.2,0.2,0.3,0.2c0.1,0.1,0.2,0.1,0.2,0.1c0.1,0,0.2-0.1,0.2-0.3
		c0-0.1,0-0.2,0-0.3V5.5c0-0.4,0-0.7-0.1-1.1c-0.1-0.4-0.2-0.7-0.3-0.8c-0.1-0.2-0.4-0.4-0.9-0.6c-0.4-0.2-0.9-0.4-1.4-0.4
		c-0.5-0.1-0.8-0.1-0.9-0.2c-0.1-0.1-0.2-0.2-0.2-0.5c0-0.3,0.1-0.5,0.2-0.5c0.1-0.1,0.3-0.1,0.6-0.1c0.7,0,1.3,0.1,1.7,0.1
		c0.4,0,0.7,0.1,1,0.1c0.2,0,0.4,0,0.6,0.1c0.1,0,0.3,0,0.5,0h0.3c0.2,0,0.4,0,0.7-0.1c0.3,0,0.6-0.1,0.9-0.1c0.3,0,0.6-0.1,1-0.1
		c0.3,0,0.6,0,0.9,0c0.4,0,0.7,0,0.8,0.1c0.1,0.1,0.2,0.2,0.2,0.4v0.2c0,0.2-0.1,0.4-0.2,0.4c-0.1,0.1-0.3,0.1-0.5,0.1
		c-0.1,0-0.3,0-0.7,0.1c-0.4,0.1-0.7,0.2-1,0.4c-0.3,0.2-0.5,0.3-0.6,0.4c-0.1,0.1-0.2,0.3-0.3,0.4c-0.1,0.2-0.1,0.3-0.1,0.6
		c0,0.2,0,0.5,0,0.8v22.1c0,0.3-0.1,0.5-0.2,0.7c-0.1,0.2-0.3,0.3-0.5,0.3c-0.3,0-0.6-0.2-0.9-0.5l-4-4.5L643.6,8z"/>
	<path d="M692.6,15.5c0.3,0,0.6,0,1,0s0.9,0,1.3-0.1c0.5,0,1-0.1,1.6-0.1c0.2,0,0.4,0.1,0.4,0.2c0,0.2,0.1,0.3,0.1,0.5
		c0,0.2-0.1,0.4-0.4,0.5s-0.5,0.1-0.8,0.2c-0.6,0.1-1,0.2-1.2,0.4c-0.2,0.2-0.3,0.5-0.3,0.8v6.3c0,0.3,0,0.6-0.1,0.8
		c0,0.2-0.1,0.3-0.3,0.3h0c-0.1,0-0.2-0.1-0.3-0.2s-0.2-0.2-0.4-0.4c-0.1-0.2-0.2-0.3-0.3-0.4c-0.1-0.1-0.2-0.2-0.3-0.2h-0.1
		c-0.2,0.1-0.3,0.2-0.4,0.3c-0.1,0.1-0.3,0.3-0.5,0.5c-0.4,0.3-0.9,0.7-1.5,1c-0.6,0.3-1.2,0.6-1.8,0.8c-0.6,0.2-1.3,0.4-2,0.5
		c-0.7,0.1-1.3,0.2-2,0.2c-2.2,0-4.2-0.3-5.9-1c-1.7-0.7-3.1-1.6-4.3-2.9s-2-2.7-2.6-4.4c-0.6-1.7-0.9-3.5-0.9-5.5
		c0-2,0.3-3.9,0.9-5.6c0.6-1.7,1.5-3.1,2.6-4.4c1.1-1.2,2.4-2.2,4-2.8c1.6-0.7,3.3-1,5.2-1c0.5,0,1.1,0,1.9,0.1
		c0.7,0.1,1.5,0.3,2.3,0.5c0.8,0.3,1.6,0.6,2.5,1.1c0.8,0.5,1.6,1,2.3,1.8h0.1c0.1,0,0.1-0.1,0.2-0.2c0.1-0.2,0.1-0.3,0.2-0.6
		c0.1-0.2,0.1-0.5,0.2-0.7s0.1-0.5,0.2-0.7c0.1-0.1,0.2-0.2,0.3-0.3c0.2-0.1,0.3-0.1,0.4-0.1c0.2,0,0.3,0.1,0.4,0.2
		c0.1,0.2,0.2,0.3,0.2,0.5v0.1c0,0.3-0.1,0.8-0.1,1.4c0,0.6,0,1.1,0,1.5v4.5c0,0.3,0,0.6,0,0.8s-0.1,0.4-0.2,0.4
		c-0.2,0.1-0.4,0.1-0.6,0.1c-0.3,0-0.5-0.1-0.5-0.3c0-0.1-0.1-0.2-0.1-0.6c-0.1-0.3-0.1-0.7-0.3-1.1c-0.2-0.5-0.4-1-0.7-1.6
		c-0.3-0.6-0.7-1.1-1.2-1.7s-1-1.1-1.5-1.5c-0.5-0.5-1.1-0.8-1.6-1.1c-0.9-0.4-1.7-0.8-2.4-1c-0.7-0.2-1.5-0.4-2.3-0.4
		c-1.3,0-2.5,0.3-3.6,0.8c-1.1,0.6-2,1.4-2.7,2.4c-0.7,1.1-1.3,2.4-1.7,3.9c-0.4,1.5-0.6,3.2-0.6,5.1v0.2c0,1.9,0.2,3.6,0.7,5.2
		c0.5,1.5,1.1,2.8,2,3.9c0.9,1.1,1.9,1.9,3,2.5s2.5,0.9,3.9,0.9h0.7c0.8,0,1.5-0.1,2.3-0.4c0.7-0.3,1.4-0.6,1.9-1
		c0.6-0.4,1-0.8,1.3-1.2c0.3-0.4,0.5-0.7,0.5-1V18c0-0.6-0.4-0.9-1.1-0.9H687c-0.2,0-0.4,0-0.4-0.1c0-0.1-0.1-0.2-0.1-0.4v-0.6
		c0-0.2,0-0.3,0.1-0.3c0.1-0.1,0.2-0.1,0.5-0.1H692.6z"/>
	<path d="M717.9,24.7c-0.1,0.1-0.2,0.2-0.4,0.2c-0.3,0-0.4-0.2-0.4-0.5l0.9-5.5c0.1-0.4,0.1-0.7,0.2-0.9c0.1-0.3,0.2-0.4,0.4-0.4
		c0.1,0,0.2,0,0.2,0c0.2,0.1,0.3,0.1,0.3,0.3c0,0.1,0.1,0.4,0.1,0.7V19c0,0.1,0,0.3,0,0.4c0,0.1,0,0.2,0,0.3c0,0.8,0.1,1.6,0.4,2.2
		c0.3,0.6,0.6,1.2,1.1,1.8c0.2,0.2,0.4,0.5,0.8,0.8c0.3,0.3,0.7,0.6,1.1,0.8c0.4,0.2,0.9,0.4,1.3,0.6c0.5,0.2,0.9,0.2,1.3,0.2
		c0.8,0,1.5-0.1,2.2-0.4c0.7-0.3,1.3-0.7,1.8-1.2s0.9-1.1,1.2-1.9c0.3-0.7,0.4-1.5,0.4-2.4c0-1.2-0.4-2.2-1.3-3.1
		c-0.9-0.8-2-1.5-3.4-1.9l-1.8-0.6c-1.4-0.4-2.5-0.9-3.4-1.3c-0.9-0.5-1.7-1-2.2-1.5c-0.6-0.6-1-1.2-1.2-2c-0.2-0.7-0.4-1.6-0.4-2.5
		c0-0.9,0.2-1.8,0.5-2.6c0.3-0.8,0.8-1.5,1.3-2c0.6-0.6,1.3-1,2-1.4c0.8-0.3,1.7-0.5,2.6-0.5c0.9,0,1.8,0.2,2.7,0.5
		c0.9,0.3,1.7,0.7,2.4,1.1c0.2,0.1,0.2,0.1,0.3,0.1c0.2,0,0.3-0.1,0.4-0.2c0.1-0.1,0.2-0.3,0.3-0.5c0.1-0.2,0.1-0.4,0.2-0.5
		c0.1-0.1,0.1-0.2,0.2-0.2l0.2,0c0.4,0,0.5,0.2,0.5,0.5v0.1c0,0.2-0.1,0.4-0.1,0.6s-0.1,0.5-0.1,0.8c0,0.3-0.1,0.6-0.1,0.9
		c0,0.3,0,0.5,0,0.7c0,0.5,0,1.1,0.1,1.8c0,0.6,0.1,1.2,0.2,1.7v0c0,0.2-0.1,0.3-0.3,0.3c-0.2,0.1-0.3,0.1-0.5,0.1h-0.1
		c-0.1,0-0.2-0.2-0.3-0.4c-0.1-0.2-0.2-0.5-0.3-0.8c-0.2-0.6-0.5-1.3-0.9-1.9c-0.4-0.6-0.9-1.2-1.4-1.7s-1.1-0.9-1.8-1.2
		c-0.6-0.3-1.3-0.5-1.9-0.5c-1,0-1.9,0.4-2.6,1.1c-0.7,0.8-1,1.7-1,2.9c0,0.6,0.1,1.1,0.2,1.5c0.2,0.4,0.4,0.8,0.8,1.2
		c0.4,0.3,0.8,0.7,1.4,0.9c0.6,0.3,1.3,0.5,2.1,0.8c1.6,0.5,3,1,4.2,1.5c1.2,0.5,2.1,1.1,2.9,1.8c0.7,0.7,1.3,1.4,1.6,2.2
		c0.4,0.8,0.5,1.8,0.5,2.8c0,1.3-0.2,2.5-0.7,3.5s-1,2-1.8,2.7c-0.8,0.8-1.6,1.3-2.7,1.7c-1,0.4-2.1,0.6-3.3,0.6
		c-0.9,0-1.9-0.1-2.8-0.4c-0.9-0.3-1.7-0.7-2.3-1.3l-1.8-1.6L717.9,24.7z"/>
	<path d="M745.4,23.8c0,0.1,0,0.1,0,0.3c0,0.1,0,0.3,0.1,0.5c0,0.2,0.1,0.3,0.1,0.5c0.1,0.1,0.1,0.2,0.2,0.3
		c0.2,0.3,0.4,0.4,0.7,0.5c0.2,0,0.6,0.1,1,0.1c0.4,0.1,0.8,0.1,1,0.1c0.3,0,0.5,0.1,0.8,0.1c0.2,0,0.3,0.1,0.3,0.3
		c0,0.1,0,0.2,0,0.2c0,0.1-0.1,0.1-0.1,0.2c-0.1,0.1-0.1,0.2-0.1,0.3c0,0.1-0.1,0.1-0.2,0.1H749c-0.6-0.1-1.3-0.1-2-0.2
		s-1.7-0.1-2.9-0.1h-1.4c-0.9,0-1.7,0-2.3,0.1c-0.6,0.1-1.2,0.1-1.8,0.1c-0.1,0-0.2,0-0.3-0.1c0-0.1,0-0.1,0-0.1v-0.7
		c0-0.1,0.1-0.2,0.2-0.2c0.2,0,0.4-0.1,0.7-0.1c0.9-0.1,1.7-0.2,2.1-0.5c0.5-0.3,0.7-0.7,0.7-1.3V5.6c0-0.7,0-1.2,0-1.6
		c0-0.4,0-0.6-0.1-0.8S742.1,3,742.1,3c0,0-0.1-0.1-0.2-0.2c-0.2-0.2-0.5-0.3-1-0.4c-0.5,0-1-0.1-1.7-0.1c-0.3,0-0.5-0.1-0.5-0.3
		c-0.1-0.2-0.1-0.4-0.1-0.5V1.5c0-0.2,0.1-0.2,0.3-0.3c0.2,0,0.4-0.1,0.5-0.1c0.1,0,0.5,0,1.1,0c0.6,0,1.2,0,1.9,0h1.6
		c0.1,0,0.4,0,0.7,0c0.3,0,0.7,0,1-0.1c0.3,0,0.7,0,1-0.1c0.3,0,0.5,0,0.6,0h2.4c1.2,0,2.4,0.2,3.5,0.5c1.1,0.3,2,0.8,2.8,1.4
		c0.8,0.6,1.4,1.3,1.9,2.1s0.7,1.7,0.8,2.5c0,0.2,0,0.4,0,0.5c0,0.2,0,0.4,0,0.6c0,1.1-0.3,2.1-0.8,3c-0.5,0.8-1.3,1.5-2.2,2
		c-0.9,0.5-2.1,0.9-3.4,1.2c-1.3,0.3-2.8,0.4-4.4,0.4h-2.4V23.8z M746.4,14.2c1.3,0,2.5-0.1,3.6-0.2c1.1-0.2,2-0.4,2.8-0.8
		c0.8-0.4,1.4-0.9,1.8-1.5c0.4-0.6,0.7-1.3,0.7-2.2c0-0.1,0-0.2,0-0.3c0-0.1,0-0.2,0-0.3l0-0.3c0-0.8-0.2-1.7-0.5-2.4
		c-0.3-0.8-0.8-1.5-1.3-2.1c-0.6-0.6-1.3-1.1-2.2-1.4c-0.9-0.4-1.9-0.5-3-0.5h-2.7v12.1H746.4z"/>
	<path d="M769.9,11.5h4.5c0.6,0,1.1,0,1.5,0s0.7,0,1,0c0.4,0,0.6-0.1,0.7-0.4c0.1-0.3,0.2-0.5,0.2-0.7c0-0.2,0-0.4,0-0.6
		s0-0.4,0-0.6c0-0.2,0-0.4,0-0.6c0-0.3,0.1-0.5,0.2-0.5c0.1-0.1,0.3-0.1,0.5-0.1c0.3,0,0.5,0,0.6,0.1c0.1,0.1,0.2,0.2,0.2,0.4
		c0,0.3,0,0.5,0,0.7c0,0.2,0,0.4,0,0.6s0,0.5,0,0.8c0,0.3,0,0.8,0,1.3v1.8c0,0.2,0,0.4,0,0.6c0,0.3,0,0.5,0.1,0.8
		c0,0.3,0,0.6,0.1,0.9c0,0.3,0,0.5,0,0.7c0,0.2-0.1,0.3-0.3,0.4c-0.2,0.1-0.4,0.1-0.6,0.1c-0.3,0-0.4-0.1-0.5-0.4
		c-0.1-0.3-0.1-0.7-0.1-1.3c0-0.4,0-0.8,0-1.1c0-0.3,0-0.6,0-0.7c0-0.3-0.1-0.5-0.3-0.5c-0.2-0.1-0.4-0.1-0.7-0.1h-6.8V23
		c0,0.5,0,0.9,0.1,1.2c0.1,0.3,0.2,0.6,0.3,0.9c0.4,0,0.8,0.1,1.3,0.1c0.4,0.1,0.8,0.1,1.3,0.1c0.5,0,1,0,1.5,0c0.4,0,0.9,0,1.4,0
		c0.5,0,1,0,1.5-0.1s0.9-0.1,1.3-0.1c0.4-0.1,0.6-0.1,0.8-0.2c0.4-0.1,0.7-0.4,0.9-0.7c0.3-0.4,0.5-0.8,0.8-1.3l0.2-0.3
		c0.1-0.1,0.1-0.2,0.2-0.3c0.4-0.6,0.7-1,0.9-1.3c0.2-0.3,0.4-0.4,0.6-0.4h0.2c0.3,0,0.4,0.1,0.4,0.3c0,0.1,0,0.2,0,0.2l-1.3,5.2
		c-0.1,0.3-0.2,0.5-0.3,0.7c-0.1,0.1-0.3,0.2-0.6,0.2h-17.6c-0.3,0-0.5,0-0.6,0c-0.1,0-0.2-0.1-0.2-0.3c0-0.3,0-0.5,0.1-0.6
		c0.1-0.1,0.2-0.2,0.4-0.2l0.5-0.1c0.3-0.1,0.7-0.1,1.1-0.2c0.4-0.1,0.7-0.1,0.8-0.2c0.4-0.1,0.6-0.5,0.8-1.1s0.2-1.5,0.2-2.6V4.8
		c0-0.2,0-0.4,0-0.7c0-0.3-0.1-0.5-0.2-0.8c-0.1-0.2-0.3-0.4-0.6-0.6c-0.3-0.2-0.6-0.3-0.9-0.3h-1.7c-0.4,0-0.6-0.2-0.6-0.7V1.7
		c0-0.2,0.1-0.3,0.2-0.4c0.1-0.1,0.2-0.1,0.3-0.1h17.1c0.3,0,0.5,0.1,0.7,0.2c0.2,0.1,0.3,0.3,0.4,0.7c0.1,0.4,0.1,0.9,0.2,1.4
		c0.1,0.5,0.1,1.1,0.2,1.6c0.1,0.5,0.1,1,0.2,1.3S782,6.9,782,7c0,0.4-0.1,0.6-0.4,0.6c-0.2,0-0.3-0.1-0.4-0.2
		c-0.1-0.2-0.2-0.5-0.5-0.9l-1.5-2.6c-0.2-0.3-0.4-0.5-0.7-0.6s-0.8-0.1-1.3-0.1h-6.2c-0.4,0-0.7,0-0.8,0.1
		c-0.1,0.1-0.2,0.2-0.2,0.4V11.5z"/>
	<path d="M804.2,26.4c1.1-0.1,2.2-0.3,3.1-0.8s1.8-1.1,2.5-1.8c0.7-0.7,1.4-1.5,1.9-2.5c0.5-0.9,0.9-1.9,1.1-2.8
		c0.1-0.4,0.3-0.7,0.6-0.7h0.1L814,18c0.1,0,0.1,0.1,0.2,0.1c0.1,0,0.1,0.1,0.1,0.2c0,0.1,0,0.2,0,0.4c0,0.2-0.1,0.3-0.1,0.4l-1,5.8
		c0,0.1-0.1,0.2-0.1,0.4c0,0.2-0.1,0.3-0.1,0.4c-0.1,0.1-0.2,0.2-0.2,0.2c0,0-0.1,0-0.2,0c-0.1,0-0.1,0-0.2,0c-0.1,0-0.1,0-0.2-0.1
		l-0.8-1c-0.2,0.2-0.3,0.3-0.5,0.5c-0.3,0.3-0.7,0.5-1,0.7c-1.4,0.7-2.7,1.2-3.9,1.5c-1.2,0.3-2.4,0.4-3.7,0.4
		c-2.2,0-4.1-0.3-5.8-0.9c-1.7-0.6-3.2-1.5-4.4-2.6c-1.2-1.1-2.1-2.5-2.8-4.2c-0.6-1.6-1-3.5-1-5.5c0-2,0.3-3.9,0.9-5.6
		s1.5-3.2,2.6-4.5s2.5-2.3,4.1-3s3.4-1.1,5.3-1.1c1.1,0,2.3,0.1,3.7,0.4c1.4,0.3,2.9,0.9,4.4,1.9c0.1,0.1,0.3,0.2,0.4,0.2
		c0.1,0.1,0.2,0.1,0.3,0.2c0.1,0.1,0.2,0.1,0.2,0.1c0.1,0,0.2-0.3,0.2-0.8V1.5c0-0.2,0-0.3,0.1-0.4s0.1-0.2,0.2-0.2
		c0.1,0,0.3,0,0.6,0c0.3,0,0.4,0,0.5,0c0.2,0,0.3,0.1,0.3,0.2c0,0.4,0.1,0.9,0.1,1.5c0,0.7,0.1,1.4,0.1,2.1c0,0.8,0.1,1.5,0.1,2.1
		c0,0.7,0.1,1.2,0.1,1.5c0,0.2,0,0.4,0.1,0.7c0,0.3,0,0.5,0,0.8c0,0.2,0,0.4,0,0.6c0,0.2-0.1,0.3-0.2,0.3c-0.1,0.1-0.2,0.1-0.3,0.1
		c-0.2,0-0.3,0-0.5,0c-0.1,0-0.2,0-0.3-0.1c-0.1-0.1-0.1-0.2-0.2-0.3c-0.1-1-0.4-2-0.9-3c-0.5-1-1.2-2-2.1-2.8c-0.9-0.8-1.9-1.5-3-2
		c-1.1-0.5-2.4-0.8-3.7-0.8c-3,0-5.3,1.1-6.9,3.4c-1.6,2.3-2.4,5.4-2.4,9.5c0,1.8,0.2,3.4,0.7,4.8c0.5,1.4,1.1,2.7,2,3.7
		c0.9,1,1.9,1.8,3.1,2.4c1.2,0.6,2.6,0.8,4,0.8L804.2,26.4z"/>
	<path d="M824.7,27c-0.4,0-1,0-1.6,0c-0.6,0-1.2,0-1.7,0.1c-0.4,0-0.6,0.1-0.8,0.1c-0.1,0-0.2,0-0.3,0h-0.1c-0.3,0-0.4-0.1-0.5-0.4
		l0-0.5c0-0.3,0.2-0.4,0.6-0.5c0.3,0,0.6,0,0.8-0.1c0.3-0.1,0.6-0.1,1.1-0.2c0.3-0.1,0.6-0.2,0.8-0.3c0.2-0.2,0.3-0.5,0.3-0.9V4.1
		c0-0.3,0-0.5-0.1-0.7c-0.1-0.2-0.2-0.4-0.3-0.5c-0.1-0.1-0.2-0.2-0.4-0.3c-0.2-0.1-0.4-0.1-0.7-0.2c-0.2-0.1-0.5-0.1-0.7-0.1
		c-0.2,0-0.4,0-0.5,0c-0.2-0.1-0.3-0.1-0.4-0.1c-0.1,0-0.1-0.1-0.1-0.3V1.3c0-0.3,0.1-0.4,0.4-0.4c0.1,0,0.2,0,0.3,0
		c0.1,0,0.2,0,0.3,0c0.2,0,0.4,0,0.7,0c0.3,0,0.7,0.1,1.1,0.1c0.4,0,0.8,0.1,1.1,0.1c0.4,0,0.7,0,0.9,0c0.5,0,1.1,0,1.7-0.1
		c0.6-0.1,1-0.1,1.3-0.1c0.2,0,0.4,0,0.7-0.1s0.6-0.1,1-0.1c0.1,0,0.2,0.1,0.2,0.2c0,0.1,0.1,0.3,0.1,0.5c0,0.2,0,0.4-0.1,0.5
		c0,0-0.1,0.1-0.2,0.1c-0.1,0-0.3,0.1-0.4,0.1c-0.2,0-0.3,0-0.5,0.1c-0.2,0-0.3,0-0.3,0c-0.2,0.1-0.4,0.1-0.8,0.2
		c-0.3,0.1-0.6,0.3-0.7,0.5c-0.1,0.1-0.1,0.3-0.1,0.4c0,0.2,0,0.4,0,0.7V25c0,0.4,0.1,0.6,0.4,0.6c0.2,0.1,0.7,0.1,1.2,0.2
		c0.2,0,0.4,0.1,0.7,0.1c0.3,0.1,0.4,0.1,0.5,0.1c0.2,0.1,0.2,0.1,0.3,0.2c0,0.1,0.1,0.2,0.1,0.4v0.2c0,0.2,0,0.3-0.1,0.4
		s-0.1,0.2-0.3,0.2h-0.2c-0.2,0-0.3-0.1-0.6-0.1c-0.2-0.1-0.5-0.1-0.7-0.1c-0.7-0.1-1.2-0.1-1.7-0.1C825.9,27,825.3,27,824.7,27z"/>
	<path d="M845.6,16l-0.7,1.3c-0.4,0.7-0.7,1.5-1,2.2c-0.3,0.8-0.6,1.5-0.8,2.1c-0.2,0.7-0.4,1.3-0.5,1.8c-0.1,0.5-0.2,0.9-0.2,1.2
		v0.1c0,0.4,0.2,0.7,0.6,1c0.4,0.3,1.1,0.4,2.2,0.5c0.3,0,0.4,0.2,0.4,0.4c0,0.1,0,0.2-0.1,0.3c-0.1,0.2-0.1,0.3-0.2,0.4
		c-0.1,0.1-0.2,0.2-0.4,0.2c-0.3,0-0.8-0.1-1.7-0.2c-0.9-0.1-1.9-0.2-3-0.2c-0.6,0-1.2,0-1.7,0c-0.6,0-1.1,0-1.6,0l-0.6,0
		c-0.2,0-0.3-0.2-0.3-0.6c0-0.3,0.1-0.4,0.2-0.5c0.1-0.1,0.3-0.1,0.4-0.1c0.7-0.1,1.3-0.3,1.9-0.8c0.6-0.5,1.2-1.3,1.8-2.4
		c0.4-0.6,0.7-1.4,1.1-2.3c0.4-0.9,0.8-1.8,1.3-2.8c0.1-0.1,0.2-0.5,0.6-1.2c0.3-0.7,0.7-1.5,1.2-2.4c0.5-0.9,1-1.9,1.6-3
		c0.6-1.1,1.1-2.1,1.6-3.1c0.5-1,0.9-1.8,1.3-2.5c0.4-0.7,0.6-1.2,0.7-1.4c0.5-0.9,1-1.8,1.4-2.4c0.4-0.7,0.7-1,0.9-1
		c0.2,0,0.3,0.1,0.5,0.2c0.1,0.1,0.3,0.4,0.5,0.8c0.7,1.4,1.9,3.9,3.4,7.4c1.5,3.6,3.4,8.4,5.7,14.3c0.2,0.6,0.4,1,0.6,1.3
		c0.2,0.3,0.4,0.6,0.6,0.7c0.2,0.2,0.5,0.3,0.8,0.4c0.3,0.1,0.8,0.1,1.3,0.2c0.4,0.1,0.6,0.2,0.6,0.5l0,0.4c0,0.1,0,0.2-0.1,0.3
		c-0.1,0.1-0.2,0.1-0.4,0.1c-0.3,0-0.6,0-1,0c-0.4,0-0.7-0.1-1.1-0.1s-0.8-0.1-1.2-0.1c-0.4,0-0.8,0-1.1,0c-0.5,0-1,0-1.5,0.1
		c-0.5,0-1,0.1-1.5,0.1c-0.5,0-0.9,0.1-1.3,0.1c-0.4,0.1-0.6,0.1-0.8,0.1h0c-0.2,0-0.3-0.1-0.3-0.3c0-0.2,0-0.4,0-0.6
		c0-0.1,0.2-0.2,0.5-0.3c0.3-0.1,0.7-0.1,1.1-0.2c0.4-0.1,0.7-0.2,1-0.4c0.3-0.2,0.5-0.5,0.5-0.8c0-0.2,0-0.5-0.1-0.8
		c-0.1-0.3-0.2-0.6-0.3-1l-2.8-7.2H845.6z M854.6,13.8c-0.1-0.3-0.2-0.5-0.3-0.8c-0.1-0.2-0.1-0.4-0.2-0.6c-0.1-0.2-0.1-0.3-0.2-0.4
		l-1.7-4.3c-0.1-0.2-0.2-0.4-0.3-0.7c-0.1-0.3-0.2-0.6-0.3-0.8c-0.1-0.3-0.2-0.5-0.3-0.7c-0.1-0.2-0.1-0.3-0.2-0.3
		c-0.1,0-0.2,0.2-0.5,0.6c-0.3,0.4-0.5,0.8-0.7,1.3l-3.4,6.7H854.6z"/>
	<path d="M890.5,21.2c0.2-0.3,0.3-0.5,0.4-0.6c0.1-0.1,0.2-0.1,0.3-0.1c0.2,0,0.3,0,0.4,0.1c0.1,0.1,0.2,0.2,0.2,0.3V21
		c-0.1,0.2-0.1,0.5-0.2,0.9s-0.2,0.9-0.3,1.4c-0.1,0.5-0.3,1-0.4,1.5c-0.1,0.5-0.2,1-0.3,1.3c-0.1,0.4-0.2,0.6-0.5,0.7
		s-0.5,0.2-0.9,0.2H872c-0.2,0-0.3-0.1-0.4-0.3c-0.1-0.2-0.1-0.4-0.1-0.5c0-0.1,0-0.2,0.1-0.4s0.2-0.2,0.3-0.2
		c0.8,0,1.5-0.1,2.1-0.4c0.6-0.3,0.9-0.6,0.9-1.1V4c0-0.3-0.1-0.5-0.4-0.7c-0.3-0.2-0.7-0.3-1.3-0.4c-0.3,0-0.5-0.1-0.9-0.1
		c-0.3-0.1-0.6-0.1-0.8-0.1c-0.2,0-0.3-0.2-0.3-0.4l0-0.4c0-0.1,0-0.2,0.1-0.3c0.1-0.1,0.2-0.1,0.3-0.1h0.4c0.4,0,1,0,1.6,0.1
		c0.6,0.1,1.3,0.1,2.1,0.1h0.8c1.4,0,2.6-0.1,3.7-0.2c1-0.1,1.6-0.2,1.8-0.2c0.3,0,0.4,0.2,0.4,0.5c0,0.2,0,0.3-0.1,0.4
		c-0.1,0.1-0.2,0.2-0.3,0.2c-0.2,0-0.5,0.1-0.8,0.2c-0.3,0.1-0.7,0.2-1,0.2c-0.3,0.1-0.7,0.2-1,0.3c-0.3,0.1-0.5,0.2-0.7,0.2
		c-0.2,0.1-0.3,0.2-0.4,0.4c0,0.2-0.1,0.4-0.1,0.8v18.9c0,0.4,0,0.8,0.1,1c0.1,0.2,0.2,0.4,0.4,0.5c0.2,0.1,0.5,0.2,0.8,0.2
		c0.3,0,0.8,0,1.3,0h7.7L890.5,21.2z"/>
	<path d="M898.8,25.5c0-0.5,0.2-0.9,0.5-1.2c0.4-0.3,0.8-0.5,1.3-0.5c0.5,0,0.9,0.2,1.2,0.5c0.3,0.3,0.5,0.7,0.5,1.2
		c0,0.5-0.2,0.9-0.5,1.3c-0.3,0.3-0.8,0.5-1.3,0.5c-0.5,0-1-0.2-1.3-0.5C899,26.5,898.8,26.1,898.8,25.5z"/>
</g>
</svg>